<?xml version="1.0" encoding="UTF-8"?>
<svg version="1.1" xmlns="http://www.w3.org/2000/svg" width="1024" height="1024">
<path d="M0 0 C337.92 0 675.84 0 1024 0 C1024 337.92 1024 675.84 1024 1024 C686.08 1024 348.16 1024 0 1024 C0 686.08 0 348.16 0 0 Z " fill="#DFE0DC" transform="translate(0,0)"/>
<path d="M0 0 C155.1 0 310.2 0 470 0 C470 35.31 470 70.62 470 107 C462.08 108.485 462.08 108.485 454 110 C439.73394389 116.11402405 428.42070252 124.22010715 422.3046875 138.9140625 C413.15821275 162.22255894 413.18864487 187.00776656 422.375 210.375 C423.22716842 212.26048641 424.10134514 214.13622173 425 216 C425.39445312 216.85207031 425.78890625 217.70414063 426.1953125 218.58203125 C442.02160141 250.18722498 470.19499096 269.74137524 502.8125 280.9375 C503.62283691 281.22004639 504.43317383 281.50259277 505.26806641 281.79370117 C512.62260413 284.19441664 519.03409683 284.86201383 527 286 C526.67 303.16 526.34 320.32 526 338 C489.04 338 452.08 338 414 338 C413.01 334.7 412.02 331.4 411 328 C409.67845221 325.31722566 409.67845221 325.31722566 408.125 323.25 C407.65320313 322.57453125 407.18140625 321.8990625 406.6953125 321.203125 C393.95730444 304.64958458 376.44144519 295.47426163 356 292 C349.1168927 291.31335297 342.21983739 291.3582996 335.31005859 291.45800781 C332.23860942 291.50015631 329.16934899 291.49902542 326.09765625 291.4921875 C303.11355641 291.5661683 283.07116806 295.94615946 265 311 C262.11030887 314.11417954 260.51087212 316.67180853 259.375 320.75 C258.7109375 323.109375 258.7109375 323.109375 258 325 C257.34 325.33 256.68 325.66 256 326 C255.01 331.94 255.01 331.94 254 338 C197.075 338.495 197.075 338.495 139 339 C139 321.51 139 304.02 139 286 C144.61 284.68 150.22 283.36 156 282 C159.54093981 280.86590879 162.93290272 279.73205877 166.375 278.375 C167.24584229 278.03581543 168.11668457 277.69663086 169.01391602 277.34716797 C202.49080186 263.94188872 228.63131135 241.70465187 243.63671875 208.36328125 C250.01788336 191.5576315 253.11523245 171.56716972 248 154 C247.61521484 152.57494141 247.61521484 152.57494141 247.22265625 151.12109375 C239.5415279 125.30854653 215.82848876 109.18626945 193.32421875 96.84765625 C182.76677408 91.18351446 172.21262887 86.22136729 161 82 C158.05423661 80.81150169 155.12091804 79.59359542 152.1875 78.375 C150.76059734 77.78602043 149.33351999 77.19746386 147.90625 76.609375 C147.23851562 76.33416016 146.57078125 76.05894531 145.8828125 75.77539062 C143.31984868 74.71989619 140.75580912 73.66743135 138.1875 72.625 C137.45917969 72.32851563 136.73085938 72.03203125 135.98046875 71.7265625 C134.00607301 71.00222797 132.0485864 70.46956362 130 70 C130 69.34 130 68.68 130 68 C128.7625 67.7525 127.525 67.505 126.25 67.25 C118.56722256 65.52529486 111.11808472 63.21406148 104.125 59.5625 C100.44545404 57.64173073 96.80145053 56.15925356 92.875 54.8125 C77.21944401 49.37749257 61.8828613 42.84818265 47.20703125 35.1484375 C44.6279417 33.80639798 42.03300075 32.49750983 39.4375 31.1875 C30.52889591 26.65981752 21.70359833 22.10361496 13.375 16.5625 C12.79032959 16.17400879 12.20565918 15.78551758 11.60327148 15.38525391 C8.01646976 12.91442899 4.99787986 10.15040357 2 7 C1.34 6.34 0.68 5.68 0 5 C0 3.35 0 1.7 0 0 Z " fill="#1D2D34" transform="translate(177,442)"/>
<path d="M0 0 C3.08976764 -0.0118456 6.17750033 -0.06110483 9.2668457 -0.11157227 C31.82111367 -0.29472011 50.66187534 4.53191999 68.05786133 19.42553711 C68.88157227 20.04557617 69.7052832 20.66561523 70.55395508 21.30444336 C76.8857737 26.66821483 82.61192058 34.43546401 85.05786133 42.42553711 C85.05786133 44.07553711 85.05786133 45.72553711 85.05786133 47.42553711 C122.01786133 47.42553711 158.97786133 47.42553711 197.05786133 47.42553711 C197.05786133 33.56553711 197.05786133 19.70553711 197.05786133 5.42553711 C197.38786133 5.42553711 197.71786133 5.42553711 198.05786133 5.42553711 C198.05786133 19.28553711 198.05786133 33.14553711 198.05786133 47.42553711 C198.71786133 47.09553711 199.37786133 46.76553711 200.05786133 46.42553711 C202.2775537 46.31297996 204.50067003 46.26615374 206.72314453 46.24853516 C207.40790863 46.24196396 208.09267273 46.23539276 208.79818726 46.22862244 C211.06834011 46.20888349 213.33842679 46.19722534 215.60864258 46.18725586 C216.77149812 46.18114257 216.77149812 46.18114257 217.95784569 46.17490578 C222.06141265 46.15404206 226.16494615 46.13974192 230.26855469 46.13037109 C234.50563263 46.11930849 238.74218511 46.08491174 242.97907734 46.04519939 C246.23820466 46.01904386 249.49720662 46.01068022 252.75642967 46.00708961 C254.31813288 46.00222052 255.87983037 45.99059722 257.44143105 45.97205162 C259.62950791 45.94768223 261.81622329 45.94862029 264.00439453 45.95556641 C265.87065239 45.94676704 265.87065239 45.94676704 267.77461243 45.93778992 C271.65825121 46.51472879 273.31394048 47.66745023 276.05786133 50.42553711 C276.92929663 53.49991756 276.66171516 56.30275014 276.05786133 59.42553711 C273.95073543 62.8496167 272.32305583 63.34554825 268.47142988 64.50728863 C263.93202624 65.58110589 259.58846547 65.70510143 254.94076443 65.6800127 C254.05229978 65.68321918 253.16383514 65.68642566 252.24844733 65.6897293 C249.27416223 65.69802436 246.30007876 65.69210671 243.32579041 65.68623352 C241.17072767 65.68925441 239.01566601 65.69314358 236.86060625 65.69782609 C230.94055537 65.70812257 225.02056493 65.70592006 219.10050905 65.70164549 C212.7153097 65.69918132 206.33012503 65.7081885 199.94493103 65.71568298 C187.43735396 65.72843985 174.929799 65.73022834 162.42221659 65.72788272 C152.25894385 65.72604992 142.09567742 65.72780938 131.93240547 65.73210716 C130.47216953 65.73270956 129.01193358 65.73331076 127.55169763 65.73391077 C125.35127504 65.73481802 123.15085246 65.73572668 120.95042987 65.73664312 C100.49443626 65.74507176 80.03844502 65.74940886 59.58244991 65.7452364 C58.42587731 65.74500183 58.42587731 65.74500183 57.24593961 65.74476253 C53.33796323 65.74395675 49.42998686 65.74311098 45.5220105 65.74224923 C44.74587309 65.74207814 43.96973569 65.74190705 43.17007897 65.74173078 C41.60054212 65.74138413 40.03100527 65.7410356 38.46146843 65.74068519 C14.03061312 65.73532606 -10.40020611 65.74326424 -34.83105469 65.76171875 C-62.27860092 65.78242772 -89.72612481 65.79316374 -117.17367929 65.78914326 C-120.09928572 65.78874791 -123.02489215 65.78838637 -125.95049858 65.78804588 C-127.03103946 65.78790979 -127.03103946 65.78790979 -128.13340945 65.78777094 C-139.01370858 65.78660437 -149.89398515 65.79325765 -160.77427864 65.8038578 C-173.14432678 65.81589705 -185.5143157 65.8172045 -197.88436563 65.80506764 C-204.19807874 65.79916185 -210.51169456 65.79812645 -216.82540131 65.81007004 C-222.60191448 65.8208707 -228.37824844 65.8178951 -234.15475302 65.80380835 C-236.24749125 65.80114537 -238.34024327 65.80357779 -240.43296803 65.81154422 C-243.27249095 65.82160559 -246.11138552 65.8132664 -248.95088291 65.80026722 C-249.76767536 65.80757657 -250.5844678 65.81488591 -251.42601153 65.82241675 C-257.42343192 65.76531498 -261.77690065 64.46762616 -266.87963867 61.17553711 C-268.66300045 58.23823535 -268.28804737 55.76932121 -267.94213867 52.42553711 C-265.74213867 47.82553711 -265.74213867 47.82553711 -262.94213867 46.42553711 C-260.75270259 46.32847351 -258.56023846 46.29756707 -256.36865234 46.29614258 C-255.35613655 46.2935141 -255.35613655 46.2935141 -254.32316589 46.29083252 C-252.08545378 46.28642158 -249.84782038 46.28935032 -247.61010742 46.29272461 C-246.05552658 46.29205112 -244.50094584 46.29108071 -242.94636536 46.28982544 C-239.6837972 46.2883493 -236.42125639 46.29049946 -233.15869141 46.29516602 C-228.9823624 46.30084906 -224.80609785 46.29759283 -220.62977123 46.29159355 C-217.41697202 46.28797356 -214.204188 46.28913339 -210.99138832 46.29172134 C-209.45204981 46.29238737 -207.91270992 46.29157354 -206.37337303 46.28924179 C-204.21681467 46.28669325 -202.06035932 46.29058746 -199.90380859 46.29614258 C-198.67740158 46.29693817 -197.45099457 46.29773376 -196.18742371 46.29855347 C-192.94213867 46.42553711 -192.94213867 46.42553711 -190.54500771 46.92595768 C-187.97317704 47.41957979 -185.66581612 47.54870027 -183.0509491 47.54579163 C-182.09327637 47.54716629 -181.13560364 47.54854095 -180.14891052 47.54995728 C-179.11025345 47.546362 -178.07159637 47.54276672 -177.00146484 47.5390625 C-175.89858124 47.53920853 -174.79569763 47.53935455 -173.65939331 47.539505 C-170.0179446 47.53880895 -166.37654719 47.53103084 -162.73510742 47.52319336 C-160.20876595 47.52132809 -157.68242412 47.5199047 -155.15608215 47.51890564 C-149.18864792 47.51547902 -143.22123566 47.50759937 -137.25381023 47.49755615 C-130.45817922 47.486368 -123.66254732 47.48087776 -116.86690938 47.47586071 C-102.89197565 47.46541602 -88.91705817 47.44783343 -74.94213867 47.42553711 C-74.95229004 46.8092041 -74.96244141 46.19287109 -74.97290039 45.55786133 C-74.9807959 44.74849121 -74.98869141 43.93912109 -74.99682617 43.10522461 C-75.00697754 42.3032666 -75.01712891 41.50130859 -75.02758789 40.67504883 C-74.86900075 36.50012911 -73.21487428 33.83464052 -70.94213867 30.42553711 C-70.37194399 29.15813755 -69.80996518 27.88702144 -69.25463867 26.61303711 C-66.92754941 21.99246276 -64.12411565 19.40350368 -59.94213867 16.42553711 C-58.92764648 15.70108398 -57.9131543 14.97663086 -56.86791992 14.23022461 C-39.14374384 2.01505117 -21.01077501 0.03795836 0 0 Z " fill="#A9B9BE" transform="translate(505.942138671875,732.574462890625)"/>
<path d="M0 0 C3.88190967 -0.00162299 7.76381354 -0.0051892 11.64572144 -0.00918579 C17.82324756 -0.01502992 24.0007489 -0.01526942 30.17827606 -0.01093674 C32.49517554 -0.00993562 34.8120763 -0.01053745 37.12897491 -0.01277542 C40.31662993 -0.01530581 43.50421427 -0.01154973 46.69186401 -0.00601196 C47.63983604 -0.00803871 48.58780807 -0.01006546 49.56450653 -0.01215363 C56.0043313 0.00909204 56.0043313 0.00909204 57.11862183 1.12338257 C57.33585072 4.45848493 57.20283833 7.78444602 57.11862183 11.12338257 C57.14955933 12.97963257 57.14955933 12.97963257 57.18112183 14.87338257 C55.76808241 19.19562079 53.77225851 20.06870056 49.97018433 22.34994507 C40.18462738 28.4357572 31.76991727 36.1988942 23.77096558 44.42807007 C21.10702428 47.13516799 18.34605353 49.61235196 15.45846558 52.07260132 C12.02764262 55.07958304 8.70210797 58.19676234 5.36862183 61.31088257 C4.71788696 61.91786987 4.0671521 62.52485718 3.396698 63.15023804 C-2.49076778 68.07360185 -2.49076778 68.07360185 -6.75637817 74.18588257 C-7.88137817 76.12338257 -7.88137817 76.12338257 -10.67825317 77.49057007 C-13.84626808 79.10548498 -15.75444576 80.69749853 -18.25637817 83.18588257 C-22.55641223 87.17318688 -27.04296767 90.35607886 -32.00637817 93.43588257 C-32.66299438 93.84395142 -33.3196106 94.25202026 -33.99612427 94.67245483 C-43.06935255 100.19001975 -51.26824316 104.28865818 -62.07669067 104.68588257 C-62.85846176 104.72206696 -63.64023285 104.75825134 -64.44569397 104.79553223 C-66.10892409 104.87216529 -67.77232096 104.94525003 -69.43585205 105.01504517 C-73.73241736 105.19612822 -78.02760836 105.40435334 -82.32278442 105.61557007 C-83.15976364 105.65648773 -83.99674286 105.6974054 -84.85908508 105.73956299 C-92.72342953 106.13859229 -100.53260921 106.85211049 -108.35403442 107.75619507 C-111.88137817 108.12338257 -111.88137817 108.12338257 -116.88137817 108.12338257 C-116.88137817 72.81338257 -116.88137817 37.50338257 -116.88137817 1.12338257 C-77.9140492 0.29429046 -38.97518052 0.01078049 0 0 Z " fill="#1A2A31" transform="translate(787.8813781738281,440.8766174316406)"/>
<path d="M0 0 C10.34842579 4.81489256 18.88658753 13.13138877 27 21 C27.6703125 21.63292969 28.340625 22.26585937 29.03125 22.91796875 C39.12829318 33.31333366 44.58924466 48.73551844 45.375 63 C44.64073797 78.51962931 38.58685818 91.35788937 28.37890625 102.8203125 C27 104 27 104 25 104 C24.73952881 104.60900146 24.47905762 105.21800293 24.21069336 105.84545898 C22.89172834 108.19267945 21.87850278 109.04929388 19.62890625 110.47265625 C18.97212891 110.89740234 18.31535156 111.32214844 17.63867188 111.75976562 C16.95353516 112.18966797 16.26839844 112.61957031 15.5625 113.0625 C14.20759013 113.9251815 12.85465199 114.79096923 11.50390625 115.66015625 C10.60393921 116.22682007 10.60393921 116.22682007 9.68579102 116.80493164 C7.92800408 117.97344822 7.92800408 117.97344822 6.40600586 119.64624023 C5 121 5 121 3 121 C3 121.66 3 122.32 3 123 C2.030625 123.763125 1.06125 124.52625 0.0625 125.3125 C-8.98481858 132.87635136 -17.88766138 146.5205993 -19.27685547 158.359375 C-19.918525 168.65807104 -19.06446065 178.89888898 -17 189 C-22.70198938 186.9274684 -27.1321613 183.55083002 -32 180 C-32.76957031 179.4740625 -33.53914063 178.948125 -34.33203125 178.40625 C-45.94434047 170.10883816 -55.41853161 155.46259529 -58.63598633 141.46826172 C-59.47996471 135.74551089 -59.36933814 129.95976356 -59.375 124.1875 C-59.39949219 122.88490234 -59.42398437 121.58230469 -59.44921875 120.24023438 C-59.47407863 111.99918463 -58.4761602 105.48070287 -55 98 C-54.52989502 96.9637146 -54.52989502 96.9637146 -54.05029297 95.90649414 C-53.16693015 94.05133739 -52.23035489 92.24307616 -51.25 90.4375 C-50.90638428 89.80110596 -50.56276855 89.16471191 -50.20874023 88.5090332 C-47.05361168 82.82606538 -43.31617557 77.86180531 -39 73 C-38.25492187 72.15824219 -37.50984375 71.31648438 -36.7421875 70.44921875 C-35.2196118 68.74857912 -33.68976975 67.05441398 -32.15234375 65.3671875 C-29.6606622 62.62679001 -27.22691973 59.84081498 -24.8046875 57.0390625 C-23.52455918 55.59268375 -22.21378584 54.17316961 -20.8828125 52.7734375 C-5.92594017 36.88499526 -0.62095201 21.60912994 0 0 Z " fill="#FC4701" transform="translate(493,205)"/>
<path d="M0 0 C3.08976764 -0.0118456 6.17750033 -0.06110483 9.2668457 -0.11157227 C31.82111367 -0.29472011 50.66187534 4.53191999 68.05786133 19.42553711 C68.8802832 20.04299805 69.70270508 20.66045898 70.55004883 21.29663086 C73.42240508 23.73500182 75.50015282 26.34020121 77.74536133 29.36303711 C78.89584961 30.89250977 78.89584961 30.89250977 80.06958008 32.45288086 C83.22419062 37.16930252 84.05786133 39.665892 84.05786133 45.42553711 C31.58786133 45.75553711 -20.88213867 46.08553711 -74.94213867 46.42553711 C-74.94213867 38.79032441 -74.88561429 36.34075053 -70.94213867 30.42553711 C-70.37194399 29.15813755 -69.80996518 27.88702144 -69.25463867 26.61303711 C-66.92754941 21.99246276 -64.12411565 19.40350368 -59.94213867 16.42553711 C-58.92764648 15.70108398 -57.9131543 14.97663086 -56.86791992 14.23022461 C-39.14374384 2.01505117 -21.01077501 0.03795836 0 0 Z " fill="#E4E8E8" transform="translate(505.942138671875,732.574462890625)"/>
<path d="M0 0 C15.98736812 15.73842986 24.7102539 34.97746776 25.625 57.5 C25.04053395 71.85890925 21.4877283 86.29278855 13 98 C12.443125 98.804375 11.88625 99.60875 11.3125 100.4375 C0.40674362 115.38242541 -14.79905474 124.10583474 -32.82104492 127.53710938 C-35.95431072 127.99334714 -38.8910014 128.11396391 -42.0546875 128.09765625 C-43.16328125 128.09443359 -44.271875 128.09121094 -45.4140625 128.08789062 C-46.55617188 128.07951172 -47.69828125 128.07113281 -48.875 128.0625 C-50.0403125 128.05798828 -51.205625 128.05347656 -52.40625 128.04882812 C-55.27088645 128.03708781 -58.13541633 128.0206657 -61 128 C-61.40206595 123.00289459 -61.73446481 118.00595455 -62 113 C-62.03689941 112.30583984 -62.07379883 111.61167969 -62.11181641 110.89648438 C-62.60718314 100.13559462 -62.01181632 90.61834065 -55 81.875 C-49.01073017 75.60297494 -41.67954566 70.70667958 -34.4375 66 C-21.76946505 57.62349138 -13.49935235 48.27809712 -6.625 34.8125 C-6.29089111 34.15950928 -5.95678223 33.50651855 -5.61254883 32.83374023 C-1.78606099 25.01037011 -0.69391708 17.65062568 -0.375 9 C-0.33632813 8.12988281 -0.29765625 7.25976562 -0.2578125 6.36328125 C-0.16459113 4.24249514 -0.08125864 2.12127815 0 0 Z " fill="#FB4902" transform="translate(562,271)"/>
<path d="M0 0 C2.85632313 2.82712733 5.67472018 5.65439401 8.3125 8.6875 C8.82425781 9.26886719 9.33601562 9.85023438 9.86328125 10.44921875 C11 12 11 12 11 14 C8 13 8 13 6 10 C5.01 9.67 4.02 9.34 3 9 C1.85080235 13.30128261 2.22556456 16.85559273 2.75 21.25 C3.31617247 27.23649457 2.69923448 30.95687966 -0.734375 35.9375 C-2.16773394 38.2733442 -2.59722067 40.18671945 -3.0625 42.875 C-3.7762073 46.79019435 -3.7762073 46.79019435 -6 48.875 C-6.66 49.24625 -7.32 49.6175 -8 50 C-8.66 50.99 -9.32 51.98 -10 53 C-10.66 53 -11.32 53 -12 53 C-12 53.66 -12 54.32 -12 55 C-12.7425 55.4125 -13.485 55.825 -14.25 56.25 C-17.20741983 57.8631882 -17.20741983 57.8631882 -18.9375 61 C-21.34243378 64.4980855 -23.22906353 65.1899505 -27 67 C-28.03296085 67.98746776 -29.03219768 69.01109172 -30 70.0625 C-32.76181289 72.99692619 -35.13850419 73.79328256 -39 75 C-41.03697617 76.62126675 -43.03814584 78.28859531 -45 80 C-46.66324401 81.00568242 -48.32936253 82.00664799 -50 83 C-50.53625 83.556875 -51.0725 84.11375 -51.625 84.6875 C-53 86 -53 86 -56 86 C-56.06058594 86.71027344 -56.12117188 87.42054688 -56.18359375 88.15234375 C-56.26738281 89.07144531 -56.35117187 89.99054688 -56.4375 90.9375 C-56.51871094 91.85402344 -56.59992188 92.77054687 -56.68359375 93.71484375 C-57 96 -57 96 -58 97 C-58.04938095 98.47834216 -58.03601165 99.95877177 -58 101.4375 C-57.91317076 109.64286327 -58.49570052 117.81413887 -59 126 C-44.5716987 125.35192027 -30.29189984 124.09789355 -16 122 C-18.92430633 123.94953755 -20.95878317 124.67652501 -24.3125 125.5625 C-25.23675781 125.81128906 -26.16101563 126.06007813 -27.11328125 126.31640625 C-32.14008464 127.50678594 -36.88604057 128.12429876 -42.0546875 128.09765625 C-43.16328125 128.09443359 -44.271875 128.09121094 -45.4140625 128.08789062 C-46.55617188 128.07951172 -47.69828125 128.07113281 -48.875 128.0625 C-50.0403125 128.05798828 -51.205625 128.05347656 -52.40625 128.04882812 C-55.27088645 128.03708781 -58.13541633 128.0206657 -61 128 C-61.40206595 123.00289459 -61.73446481 118.00595455 -62 113 C-62.03689941 112.30583984 -62.07379883 111.61167969 -62.11181641 110.89648438 C-62.60718314 100.13559462 -62.01181632 90.61834065 -55 81.875 C-49.01073017 75.60297494 -41.67954566 70.70667958 -34.4375 66 C-21.76946505 57.62349138 -13.49935235 48.27809712 -6.625 34.8125 C-6.29089111 34.15950928 -5.95678223 33.50651855 -5.61254883 32.83374023 C-1.78606099 25.01037011 -0.69391708 17.65062568 -0.375 9 C-0.33632813 8.12988281 -0.29765625 7.25976562 -0.2578125 6.36328125 C-0.16459113 4.24249514 -0.08125864 2.12127815 0 0 Z " fill="#E66709" transform="translate(562,271)"/>
<path d="M0 0 C13.12598957 6.10723126 24.95557902 17.88555309 34 29 C33.67 29.66 33.34 30.32 33 31 C29.88599816 28.00576746 27.11550878 24.81332279 24.3671875 21.48828125 C23.04914224 19.87617982 23.04914224 19.87617982 21 19 C21 18.34 21 17.68 21 17 C20.34 17 19.68 17 19 17 C19 16.34 19 15.68 19 15 C18.43410156 14.74347656 17.86820312 14.48695313 17.28515625 14.22265625 C13.90064854 12.41179999 11.09396669 9.96997973 8.12109375 7.55859375 C5.99146649 5.8266441 5.99146649 5.8266441 3 5 C1.6308 12.00492499 0.78931296 18.57881653 1.125 25.72265625 C1 28 1 28 -1 31 C-1.20625 32.2375 -1.4125 33.475 -1.625 34.75 C-2.68102433 39.49774574 -5.43092194 41.53443009 -9.22265625 44.359375 C-11.27357636 46.25253202 -11.37443682 47.36488429 -12 50 C-12.99 50.33 -13.98 50.66 -15 51 C-16.79194652 52.95132607 -16.79194652 52.95132607 -18.5 55.3125 C-19.0878125 56.09238281 -19.675625 56.87226563 -20.28125 57.67578125 C-21.38033644 59.16204587 -22.47693755 60.65015368 -23.5703125 62.140625 C-25.50422362 64.65576624 -27.73088828 66.78491475 -30 69 C-30.845625 69.845625 -31.69125 70.69125 -32.5625 71.5625 C-34.09406884 73.09406884 -35.65334961 74.59890381 -37.25 76.0625 C-39.12521371 77.81089526 -39.12521371 77.81089526 -39.390625 79.875 C-40.38115286 83.32914843 -42.9500091 85.37060364 -45.40625 87.90234375 C-48.05166147 91.38417208 -48.04997927 94.28779546 -47.75 98.5625 C-48 102 -48 102 -50.375 104.125 C-51.24125 104.74375 -52.1075 105.3625 -53 106 C-58.13863707 116.5100347 -57.32126875 133.81841274 -53.921875 144.9375 C-52.13588828 149.75751234 -50.62985184 153.37982776 -47 157 C-45.90234375 159.33984375 -45.90234375 159.33984375 -44.9375 161.9375 C-43.76620039 165.05626162 -42.54248358 168.045287 -41 171 C-50.02525135 164.48612294 -54.9147523 153.44103601 -58 143 C-58.1743457 142.42717285 -58.34869141 141.8543457 -58.52832031 141.26416016 C-59.53536667 136.43012914 -59.26626332 131.40505422 -59.29516602 126.48510742 C-59.30661682 125.13246136 -59.32695806 123.77985798 -59.35668945 122.42749023 C-59.55410407 113.42913369 -58.82507873 106.18508066 -55 98 C-54.52977417 96.964198 -54.52977417 96.964198 -54.05004883 95.9074707 C-53.16710239 94.05174247 -52.23051374 92.24336871 -51.25 90.4375 C-50.90638428 89.80110596 -50.56276855 89.16471191 -50.20874023 88.5090332 C-47.05361168 82.82606538 -43.31617557 77.86180531 -39 73 C-38.25492187 72.15824219 -37.50984375 71.31648438 -36.7421875 70.44921875 C-35.2196118 68.74857912 -33.68976975 67.05441398 -32.15234375 65.3671875 C-29.6606622 62.62679001 -27.22691973 59.84081498 -24.8046875 57.0390625 C-23.52455918 55.59268375 -22.21378584 54.17316961 -20.8828125 52.7734375 C-5.92594017 36.88499526 -0.62095201 21.60912994 0 0 Z " fill="#DA5919" transform="translate(493,205)"/>
<path d="M0 0 C4.22353549 2.06502842 7.16813413 5.72564631 9 10 C9.56872801 15.21334006 8.9156441 18.62653385 6 23 C2.23316255 26.67025187 -0.90432172 27.31056958 -6 27.5 C-11.09638332 27.31685859 -14.19231086 26.61242303 -18 23 C-20.09786599 20.63144163 -20.95264826 19.0654142 -21.09375 15.890625 C-20.67024645 9.58042213 -18.67990392 5.43627629 -13.9375 1.125 C-9.3034176 -0.64975496 -4.88793702 -0.76800185 0 0 Z " fill="#E7F1F7" transform="translate(516,489)"/>
<path d="M0 0 C3.45658479 2.04573386 4.7785359 3.66780385 7 7 C7.58163456 12.06852972 7.62519301 14.0070464 4.875 18.375 C0.75740116 22.13454677 -2.0208735 23.03472152 -7.5625 22.9375 C-12.81566516 21.50481859 -15.059867 18.4101995 -18 14 C-18.43660384 10.69428522 -18.71042728 8.18580613 -16.94921875 5.24609375 C-12.03406435 -0.77098317 -7.42470476 -0.79397132 0 0 Z " fill="#E4EDF7" transform="translate(516,602)"/>
<path d="M0 0 C13.12598957 6.10723126 24.95557902 17.88555309 34 29 C33.67 29.66 33.34 30.32 33 31 C29.88599816 28.00576746 27.11550878 24.81332279 24.3671875 21.48828125 C23.04914224 19.87617982 23.04914224 19.87617982 21 19 C21 18.34 21 17.68 21 17 C20.34 17 19.68 17 19 17 C19 16.34 19 15.68 19 15 C18.43410156 14.74347656 17.86820312 14.48695313 17.28515625 14.22265625 C13.90064854 12.41179999 11.09396669 9.96997973 8.12109375 7.55859375 C5.99146649 5.8266441 5.99146649 5.8266441 3 5 C1.6308 12.00492499 0.78931296 18.57881653 1.125 25.72265625 C1 28 1 28 -1 31 C-1.20625 32.2375 -1.4125 33.475 -1.625 34.75 C-2.68102433 39.49774574 -5.43092194 41.53443009 -9.22265625 44.359375 C-11.27357636 46.25253202 -11.37443682 47.36488429 -12 50 C-13.485 50.495 -13.485 50.495 -15 51 C-16.68575489 52.92312475 -16.68575489 52.92312475 -18.3125 55.25 C-21.26208803 59.1745045 -24.14902885 61.98619649 -28 65 C-29.68711423 66.6459651 -31.3545622 68.31237149 -33 70 C-34.66666667 71.66666667 -36.33333333 73.33333333 -38 75 C-38.66 74.67 -39.32 74.34 -40 74 C-39.35933594 73.29875 -38.71867187 72.5975 -38.05859375 71.875 C-33.57848765 66.96090448 -29.11338133 62.03951699 -24.76953125 57.00390625 C-23.50321868 55.56987016 -22.20495156 54.16380302 -20.88671875 52.77734375 C-5.92744591 36.88796068 -0.62101931 21.61147214 0 0 Z " fill="#E1761D" transform="translate(493,205)"/>
<path d="M0 0 C68.97 0 137.94 0 209 0 C209 0.33 209 0.66 209 1 C207.96686519 1.00238835 206.93373037 1.00477671 205.86928844 1.00723743 C180.75745791 1.06597207 155.64572379 1.1418173 130.53399944 1.23571491 C118.39026951 1.2807245 106.24656924 1.32012718 94.1027832 1.34643555 C83.52109611 1.36937388 72.93950249 1.40272503 62.35788947 1.44870156 C56.75243564 1.47269008 51.1470747 1.4913819 45.54157066 1.49761391 C40.26960959 1.50363937 34.99788639 1.52354672 29.72601318 1.55427551 C27.78738363 1.56309663 25.84872305 1.56676996 23.91007423 1.56500816 C21.2702715 1.56336609 18.63120321 1.5799627 15.99150085 1.60127258 C15.21815877 1.59642501 14.44481669 1.59157743 13.64804 1.58658296 C9.59303707 1.63682933 9.59303707 1.63682933 6.0005312 3.33742046 C4.74218707 5.10500344 4.74218707 5.10500344 5 8 C1.125 6.125 1.125 6.125 0 5 C0 3.35 0 1.7 0 0 Z " fill="#1D272B" transform="translate(177,442)"/>
<path d="M0 0 C0.66 0.33 1.32 0.66 2 1 C0.68 3.31 -0.64 5.62 -2 8 C-2.99 8 -3.98 8 -5 8 C-5.06058594 8.71027344 -5.12117188 9.42054688 -5.18359375 10.15234375 C-5.30927734 11.53099609 -5.30927734 11.53099609 -5.4375 12.9375 C-5.51871094 13.85402344 -5.59992188 14.77054687 -5.68359375 15.71484375 C-6 18 -6 18 -7 19 C-7.04938095 20.47834216 -7.03601165 21.95877177 -7 23.4375 C-6.91317076 31.64286327 -7.49570052 39.81413887 -8 48 C6.4283013 47.35192027 20.70810016 46.09789355 35 44 C32.07569367 45.94953755 30.04121683 46.67652501 26.6875 47.5625 C25.76324219 47.81128906 24.83898437 48.06007813 23.88671875 48.31640625 C18.85991536 49.50678594 14.11395943 50.12429876 8.9453125 50.09765625 C7.83671875 50.09443359 6.728125 50.09121094 5.5859375 50.08789062 C4.44382812 50.07951172 3.30171875 50.07113281 2.125 50.0625 C0.9596875 50.05798828 -0.205625 50.05347656 -1.40625 50.04882812 C-4.27088645 50.03708781 -7.13541633 50.0206657 -10 50 C-10.40206595 45.00289459 -10.73446481 40.00595455 -11 35 C-11.03689941 34.30583984 -11.07379883 33.61167969 -11.11181641 32.89648438 C-11.62990156 21.64208082 -10.89185953 12.19441787 -3.25 3.3125 C-2.18229988 2.19320933 -1.10460558 1.0828858 0 0 Z " fill="#D25720" transform="translate(511,349)"/>
<path d="M0 0 C2.85632313 2.82712733 5.67472018 5.65439401 8.3125 8.6875 C8.82425781 9.26886719 9.33601562 9.85023438 9.86328125 10.44921875 C11 12 11 12 11 14 C8 13 8 13 6 10 C5.01 9.67 4.02 9.34 3 9 C2.05404888 12.89211949 2.01065549 16.32154951 2.1875 20.3125 C2.21483872 26.4021988 1.30585269 29.97395071 -2 35 C-2.5671875 35.93199219 -3.134375 36.86398437 -3.71875 37.82421875 C-6.23198174 41.89757104 -8.56118596 45.6583276 -12 49 C-12.515625 49.886875 -13.03125 50.77375 -13.5625 51.6875 C-14.036875 52.450625 -14.51125 53.21375 -15 54 C-15.66 54 -16.32 54 -17 54 C-17 54.66 -17 55.32 -17 56 C-19.90548882 58.04169485 -21.40142046 59 -25 59 C-24.175 58.401875 -23.35 57.80375 -22.5 57.1875 C-15.38297256 51.17311061 -10.78891459 43.01876202 -6.625 34.8125 C-6.29129395 34.15983154 -5.95758789 33.50716309 -5.61376953 32.8347168 C-1.78475653 25.01230899 -0.69391059 17.65044973 -0.375 9 C-0.33632813 8.12988281 -0.29765625 7.25976562 -0.2578125 6.36328125 C-0.16459113 4.24249514 -0.08125864 2.12127815 0 0 Z " fill="#CD7925" transform="translate(562,271)"/>
<path d="M0 0 C0.33 0 0.66 0 1 0 C4.21153969 13.99313721 3.43248264 28.29357009 -4 41 C-11.16589511 51.71983094 -11.16589511 51.71983094 -15 55 C-15.66 55 -16.32 55 -17 55 C-17.26047119 55.60900146 -17.52094238 56.21800293 -17.78930664 56.84545898 C-19.10827166 59.19267945 -20.12149722 60.04929388 -22.37109375 61.47265625 C-23.02787109 61.89740234 -23.68464844 62.32214844 -24.36132812 62.75976562 C-25.04646484 63.18966797 -25.73160156 63.61957031 -26.4375 64.0625 C-27.79240987 64.9251815 -29.14534801 65.79096923 -30.49609375 66.66015625 C-31.09607178 67.03793213 -31.6960498 67.41570801 -32.31420898 67.80493164 C-34.07199592 68.97344822 -34.07199592 68.97344822 -35.59399414 70.64624023 C-37 72 -37 72 -39 72 C-38.8125 69.6875 -38.8125 69.6875 -38 67 C-36.36977377 65.94163323 -34.69576506 64.94982032 -33 64 C-28.54882777 61.0024137 -24.16583541 57.94724127 -20 54.5625 C-18 53 -18 53 -16 53 C-16 52.34 -16 51.68 -16 51 C-14.515 50.505 -14.515 50.505 -13 50 C-12.67 49.01 -12.34 48.02 -12 47 C-11.195625 46.21625 -10.39125 45.4325 -9.5625 44.625 C-7.07392216 42.07572514 -6.05218733 40.34786879 -5 37 C-4.34 37 -3.68 37 -3 37 C-2.68680856 35.60432165 -2.37448212 34.20844918 -2.0625 32.8125 C-1.88847656 32.03519531 -1.71445312 31.25789063 -1.53515625 30.45703125 C-1.35855469 29.64621094 -1.18195312 28.83539063 -1 28 C-0.82597656 27.23816406 -0.65195312 26.47632813 -0.47265625 25.69140625 C0.01877471 22.89309278 0.11351819 20.31975651 0.09765625 17.48046875 C0.09443359 16.45888672 0.09121094 15.43730469 0.08789062 14.38476562 C0.07951172 13.32966797 0.07113281 12.27457031 0.0625 11.1875 C0.05798828 10.11306641 0.05347656 9.03863281 0.04882812 7.93164062 C0.03707729 5.28770317 0.02064787 2.64388048 0 0 Z " fill="#CC502B" transform="translate(535,254)"/>
<path d="M0 0 C10.28595027 9.31213249 12.88008851 26.86910877 14.484375 39.94921875 C14.97832976 52.42157646 12.11900411 67.07192521 6 78 C5 75 5 75 5.83984375 73.24609375 C6.22269531 72.50488281 6.60554687 71.76367188 7 71 C7.57297757 68.69986515 8.08904365 66.38516285 8.5625 64.0625 C8.93568359 62.25458984 8.93568359 62.25458984 9.31640625 60.41015625 C9.54199219 59.28480469 9.76757812 58.15945313 10 57 C10.19078125 56.22398437 10.3815625 55.44796875 10.578125 54.6484375 C11.21912399 50.62438828 11.18436818 46.63074012 11.1875 42.5625 C11.19974609 41.72912109 11.21199219 40.89574219 11.22460938 40.03710938 C11.23593046 35.26338496 10.79483667 31.49383919 9 27 C8.731875 25.948125 8.46375 24.89625 8.1875 23.8125 C6.86397175 19.56327772 5.10903299 15.67105191 3.21875 11.6484375 C0 4.65384615 0 4.65384615 0 0 Z " fill="#D55A2E" transform="translate(573,285)"/>
<path d="M0 0 C0.99 0.33 1.98 0.66 3 1 C-3.85756364 10.90016867 -12.80060071 17.63022505 -22.65234375 24.375 C-24.89560312 25.9277386 -27.07708176 27.53822619 -29.25 29.1875 C-32.42278218 31.59288161 -35.66202331 33.83031515 -39 36 C-38.67 34.35 -38.34 32.7 -38 31 C-37.34 31 -36.68 31 -36 31 C-35.74605469 30.3915625 -35.49210937 29.783125 -35.23046875 29.15625 C-33.83385356 26.70884814 -32.72524766 25.90309097 -30.3125 24.5 C-29.60609375 24.08105469 -28.8996875 23.66210938 -28.171875 23.23046875 C-26.76889142 22.43561294 -25.36283115 21.64615241 -23.953125 20.86328125 C-20.36836656 19.0695449 -20.36836656 19.0695449 -18 16 C-17.34 16 -16.68 16 -16 16 C-15.67 15.01 -15.34 14.02 -15 13 C-14.0925 12.71125 -13.185 12.4225 -12.25 12.125 C-8.39236907 10.78966622 -6.62936652 9.08011507 -4 6 C-3.67 5.01 -3.34 4.02 -3 3 C-2.34 3 -1.68 3 -1 3 C-0.67 2.01 -0.34 1.02 0 0 Z " fill="#F5ECCF" transform="translate(547,316)"/>
<path d="M0 0 C13.12598957 6.10723126 24.95557902 17.88555309 34 29 C33.67 29.66 33.34 30.32 33 31 C29.88599816 28.00576746 27.11550878 24.81332279 24.3671875 21.48828125 C23.04914224 19.87617982 23.04914224 19.87617982 21 19 C21 18.34 21 17.68 21 17 C20.34 17 19.68 17 19 17 C19 16.34 19 15.68 19 15 C18.15115234 14.61521484 18.15115234 14.61521484 17.28515625 14.22265625 C13.90064854 12.41179999 11.09396669 9.96997973 8.12109375 7.55859375 C5.99146649 5.8266441 5.99146649 5.8266441 3 5 C2.92483154 5.59014893 2.84966309 6.18029785 2.7722168 6.78833008 C2.42377896 9.46495426 2.05587825 12.13855041 1.6875 14.8125 C1.56955078 15.74126953 1.45160156 16.67003906 1.33007812 17.62695312 C1.20439453 18.51962891 1.07871094 19.41230469 0.94921875 20.33203125 C0.83924561 21.15421143 0.72927246 21.9763916 0.6159668 22.82348633 C-0.09081291 25.32088668 -1.03473764 26.35179065 -3 28 C-2.1108545 20.50577367 -2.1108545 20.50577367 -1.5 17.71875 C-0.85720418 14.22354772 -0.64422957 10.72901475 -0.4375 7.1875 C-0.39431641 6.49462891 -0.35113281 5.80175781 -0.30664062 5.08789062 C-0.20138547 3.39211314 -0.10027137 1.69607948 0 0 Z " fill="#BB5725" transform="translate(493,205)"/>
<path d="M0 0 C0.66 0.99 1.32 1.98 2 3 C1.0925 3.5775 0.185 4.155 -0.75 4.75 C-3.95807373 6.82763643 -3.95807373 6.82763643 -6.1875 9.1875 C-8 11 -8 11 -11 12 C-12.35432691 13.35432691 -13.68731586 14.7302731 -15 16.125 C-17 18 -17 18 -19 18 C-19.33 19.32 -19.66 20.64 -20 22 C-21.98 22 -23.96 22 -26 22 C-9.13131313 1.75757576 -9.13131313 1.75757576 0 0 Z " fill="#D9E1EA" transform="translate(835,466)"/>
<path d="M0 0 C0.33 0.99 0.66 1.98 1 3 C1.66 3 2.32 3 3 3 C3.06058594 3.63808594 3.12117187 4.27617187 3.18359375 4.93359375 C3.26738281 5.75988281 3.35117187 6.58617187 3.4375 7.4375 C3.51871094 8.26121094 3.59992187 9.08492188 3.68359375 9.93359375 C3.78930815 11.98662025 3.78930815 11.98662025 5 13 C5.0991918 14.61083745 5.1307982 16.22595644 5.1328125 17.83984375 C5.13410156 18.82017578 5.13539063 19.80050781 5.13671875 20.81054688 C5.13285156 21.84244141 5.12898437 22.87433594 5.125 23.9375 C5.12886719 24.96552734 5.13273438 25.99355469 5.13671875 27.05273438 C5.13542969 28.03435547 5.13414062 29.01597656 5.1328125 30.02734375 C5.13168457 30.93218506 5.13055664 31.83702637 5.12939453 32.76928711 C5 35 5 35 4 37 C3.34 37 2.68 37 2 37 C1.96261719 37.556875 1.92523437 38.11375 1.88671875 38.6875 C1.40814401 44.24272053 0.22748352 48.89871649 -2 54 C-2.33 54.804375 -2.66 55.60875 -3 56.4375 C-4 58 -4 58 -7 59 C-6.70996094 58.27683594 -6.41992188 57.55367188 -6.12109375 56.80859375 C-5.75113281 55.88175781 -5.38117187 54.95492187 -5 54 C-4.68160156 53.20722656 -4.36320313 52.41445313 -4.03515625 51.59765625 C1.46684603 37.25709608 4.50588952 21.93567293 0.4453125 6.80859375 C-0.12007637 4.51232139 -0.15178421 2.35265532 0 0 Z " fill="#FBC7B6" transform="translate(584,307)"/>
<path d="M0 0 C0.33 0.99 0.66 1.98 1 3 C0.53078125 3.41121094 0.0615625 3.82242187 -0.421875 4.24609375 C-2.19721943 6.21918694 -2.60250691 7.51415219 -3.25 10.0625 C-4.75298365 14.98135558 -7.31542308 18.64704888 -10.37890625 22.73828125 C-13.91981127 27.67848368 -14.28563745 31.38913426 -14.1875 37.4375 C-14.18685547 38.18837891 -14.18621094 38.93925781 -14.18554688 39.71289062 C-14.15461003 43.62124556 -13.84339868 47.17123775 -13 51 C-12.88321201 53.67678073 -12.9545494 56.31841457 -13 59 C-13.33 59 -13.66 59 -14 59 C-17.95937244 43.58672872 -18.06322059 27.84045655 -10.11328125 13.81640625 C-7.11232767 8.92011357 -3.68007415 4.40607517 0 0 Z " fill="#F5D5CA" transform="translate(489,333)"/>
<path d="M0 0 C1.98 0 3.96 0 6 0 C3.0480423 3.45273043 0.09136356 6.90076248 -2.89453125 10.32421875 C-15.51514516 24.5999739 -15.51514516 24.5999739 -25 41 C-25.33 41 -25.66 41 -26 41 C-26.1875 37.625 -26.1875 37.625 -26 34 C-25.01 33.34 -24.02 32.68 -23 32 C-21.80767387 29.94996045 -21.80767387 29.94996045 -21 28 C-20.34 28 -19.68 28 -19 28 C-18.5978125 26.576875 -18.5978125 26.576875 -18.1875 25.125 C-17 22 -17 22 -14 20 C-13.67 19.01 -13.34 18.02 -13 17 C-12.34 16.67 -11.68 16.34 -11 16 C-10.731875 15.21625 -10.46375 14.4325 -10.1875 13.625 C-8.69679563 10.32975877 -7.06681681 9.79520984 -4 8 C-2.96642853 6.35394174 -1.95939668 4.69036558 -1 3 C-0.34 3 0.32 3 1 3 C0.67 2.01 0.34 1.02 0 0 Z " fill="#F8E7CA" transform="translate(466,258)"/>
<path d="M0 0 C1.44349674 0.73839246 2.87959051 1.49126643 4.3125 2.25 C5.51326172 2.87648437 5.51326172 2.87648437 6.73828125 3.515625 C9.13190204 5.08656783 10.43301591 6.6267037 12 9 C10.02 8.34 8.04 7.68 6 7 C5.95875 8.093125 5.9175 9.18625 5.875 10.3125 C5.441875 12.1378125 5.441875 12.1378125 5 14 C2.0625 15.75 2.0625 15.75 -1 17 C-1.66 17.99 -2.32 18.98 -3 20 C-3.29359411 13.54092963 -2.36433656 7.31379109 -1 1 C-0.67 0.67 -0.34 0.34 0 0 Z " fill="#F36304" transform="translate(496,209)"/>
<path d="M0 0 C0.96647964 -0.00087616 0.96647964 -0.00087616 1.95248413 -0.00177002 C4.07402146 0.00100823 6.19413905 0.03208382 8.31542969 0.06347656 C9.78944125 0.07093998 11.26346275 0.07663244 12.73748779 0.08062744 C16.61095736 0.09587617 20.48382384 0.13515049 24.35705566 0.17944336 C28.31184735 0.22041305 32.2667368 0.23864202 36.22167969 0.25878906 C43.97716251 0.30164628 51.73214899 0.36988734 59.48730469 0.45410156 C59.48730469 0.78410156 59.48730469 1.11410156 59.48730469 1.45410156 C58.86169647 1.46440903 58.23608826 1.47471649 57.59152222 1.4853363 C51.07002867 1.59366172 44.54866604 1.70823792 38.02734375 1.82641602 C35.59475447 1.86968149 33.16213647 1.9113624 30.72949219 1.95141602 C27.22940419 2.00932188 23.72945967 2.07295779 20.22949219 2.13769531 C18.60259964 2.16276405 18.60259964 2.16276405 16.94284058 2.18833923 C11.99875255 2.28495929 7.36792897 2.62318135 2.48730469 3.45410156 C1.49730469 3.12410156 0.50730469 2.79410156 -0.51269531 2.45410156 C-2.49599704 3.32059623 -2.49599704 3.32059623 -4.51269531 4.45410156 C-5.21394531 4.53660156 -5.91519531 4.61910156 -6.63769531 4.70410156 C-7.25644531 4.95160156 -7.87519531 5.19910156 -8.51269531 5.45410156 C-9.81726091 8.45026102 -9.81726091 8.45026102 -10.51269531 11.45410156 C-10.84269531 11.45410156 -11.17269531 11.45410156 -11.51269531 11.45410156 C-11.02750715 5.14665541 -11.02750715 5.14665541 -8.87286377 2.24810791 C-5.75533166 -0.12158413 -3.89295963 -0.02971725 0 0 Z " fill="#94A3A8" transform="translate(249.5126953125,778.5458984375)"/>
<path d="M0 0 C0.33 0.66 0.66 1.32 1 2 C1.99 2 2.98 2 4 2 C2.79622043 5.61133872 1.6365621 6.25795377 -1.375 8.5 C-5.41484156 11.62799161 -9.07254689 14.96174671 -12.625 18.625 C-16.80590661 22.90106238 -21.05406599 26.64129983 -26 30 C-25.67 28.68 -25.34 27.36 -25 26 C-24.34 26 -23.68 26 -23 26 C-22.34 24.02 -21.68 22.04 -21 20 C-20.01 20 -19.02 20 -18 20 C-16.64631404 18.68733482 -15.31200404 17.35432675 -14 16 C-13.34 16 -12.68 16 -12 16 C-11.896875 15.236875 -11.79375 14.47375 -11.6875 13.6875 C-10.94932885 10.80192188 -10.37859197 9.73820183 -8 8 C-7.01 8 -6.02 8 -5 8 C-4.67 7.01 -4.34 6.02 -4 5 C-3.34 5 -2.68 5 -2 5 C-2 4.34 -2 3.68 -2 3 C-1.34 3 -0.68 3 0 3 C0 2.01 0 1.02 0 0 Z " fill="#3A474F" transform="translate(827,464)"/>
<path d="M0 0 C1 3 1 3 0.2578125 4.90234375 C-0.11601562 5.57394531 -0.48984375 6.24554688 -0.875 6.9375 C-4.5837643 13.6677401 -4.18620868 19.99070183 -4.18530273 27.56982422 C-4.18747065 29.59755032 -4.20559264 31.62471511 -4.22460938 33.65234375 C-4.23553393 41.01549505 -3.86794447 47.8605363 -2 55 C-5 53 -5 53 -5.73046875 51.13671875 C-8.6663535 35.40338764 -7.41767711 19.52195021 -4 4 C-3.34 4 -2.68 4 -2 4 C-2 3.01 -2 2.02 -2 1 C-1.34 0.67 -0.68 0.34 0 0 Z " fill="#FAE2C7" transform="translate(439,299)"/>
<path d="M0 0 C7.60616489 -0.09279724 15.21227087 -0.1638141 22.81887341 -0.20724869 C26.35121382 -0.22809843 29.88316613 -0.25636679 33.4152832 -0.30175781 C37.47871567 -0.35364825 41.54174228 -0.37296666 45.60546875 -0.390625 C46.8702153 -0.41127014 48.13496185 -0.43191528 49.43803406 -0.45318604 C50.61888077 -0.45348816 51.79972748 -0.45379028 53.01635742 -0.45410156 C54.05338303 -0.46298401 55.09040863 -0.47186646 56.15885925 -0.48101807 C59.74294237 0.12578353 61.42417968 1.48525315 64 4 C64.64516342 6.82839644 64.24477546 9.06269443 64 12 C63.67 12 63.34 12 63 12 C62.34 9.36 61.68 6.72 61 4 C58.69 4 56.38 4 54 4 C54 3.34 54 2.68 54 2 C53.35298126 2.00444122 52.70596252 2.00888245 52.03933716 2.01345825 C45.32393597 2.05759925 38.60857578 2.08782788 31.89306641 2.10986328 C29.38458585 2.11994011 26.87611708 2.13360179 24.36767578 2.15087891 C20.76852512 2.17505337 17.16952933 2.18646612 13.5703125 2.1953125 C12.44319855 2.20563507 11.31608459 2.21595764 10.15481567 2.22659302 C9.11388763 2.22674408 8.07295959 2.22689514 7.00048828 2.22705078 C6.08115509 2.231492 5.1618219 2.23593323 4.21463013 2.24050903 C2 2 2 2 0 0 Z " fill="#82969B" transform="translate(718,779)"/>
<path d="M0 0 C3.17690458 1.39907477 5.80696506 3.29237306 8.56982422 5.37744141 C16.24772261 11.14931067 24.17328951 15.26657343 33 19 C33 19.66 33 20.32 33 21 C28.25 22.125 28.25 22.125 26 21 C26 20.01 26 19.02 26 18 C24.39125 17.814375 24.39125 17.814375 22.75 17.625 C18.02980114 16.83830019 16.03723001 16.0948539 12.75 12.625 C9.84510986 9.85215032 7.33886039 8.58558779 3.671875 7.08984375 C2 6 2 6 1.328125 4.00390625 C1.21984375 3.34261719 1.1115625 2.68132813 1 2 C0.67 1.34 0.34 0.68 0 0 Z " fill="#141B20" transform="translate(630,697)"/>
<path d="M0 0 C0 3.61396818 -1.07534035 4.50792727 -3.50561523 7.02416992 C-4.27627319 7.78564331 -4.27627319 7.78564331 -5.0625 8.5625 C-5.59109619 9.08755127 -6.11969238 9.61260254 -6.66430664 10.15356445 C-10.79461054 14.11891916 -15.18501096 17.50172681 -19.9375 20.6875 C-20.56342041 21.109104 -21.18934082 21.53070801 -21.83422852 21.96508789 C-25.17965927 24.12095229 -28.02384126 25.5548513 -32 26 C-31.34 25.67 -30.68 25.34 -30 25 C-29.67 24.01 -29.34 23.02 -29 22 C-27.03047094 20.86156892 -25.00677628 20.03913851 -22.91015625 19.16015625 C-20.60065559 17.75745339 -19.98621742 16.4732887 -19 14 C-18.01 14.33 -17.02 14.66 -16 15 C-15.401875 14.195625 -14.80375 13.39125 -14.1875 12.5625 C-12 10 -12 10 -9 9 C-6.35703248 6.66796984 -5.12775574 5.38326722 -4 2 C-1.9375 0.8125 -1.9375 0.8125 0 0 Z " fill="#E7EDEC" transform="translate(398,683)"/>
<path d="M0 0 C0 3.94991499 -1.55508641 4.97981263 -4 8 C-4.2475 8.78375 -4.495 9.5675 -4.75 10.375 C-6.44333352 13.9310004 -8.98187365 15.8073116 -11.9765625 18.3046875 C-14.47213088 20.39556911 -16.72972139 22.66836251 -19 25 C-20.66666667 26.66666667 -22.33333333 28.33333333 -24 30 C-24.66 29.67 -25.32 29.34 -26 29 C-25.35933594 28.29875 -24.71867187 27.5975 -24.05859375 26.875 C-19.59285928 21.9766683 -15.15278709 17.06202893 -10.8046875 12.05859375 C-7.24682047 8.00016101 -3.61859456 4.00424976 0 0 Z " fill="#DB8B2A" transform="translate(479,250)"/>
<path d="M0 0 C0 3.10551666 -0.5393715 4.35261084 -2 7 C-3 5 -3 5 -2.6875 2.9375 C-2 1 -2 1 0 0 Z M-5 8 C-3.38892086 12.02769785 -4.52240604 15.05974943 -6 19 C-8 21.25 -8 21.25 -10 23 C-10.99 24.485 -10.99 24.485 -12 26 C-12.66 26 -13.32 26 -14 26 C-14 26.66 -14 27.32 -14 28 C-14.66 28 -15.32 28 -16 28 C-15.5020163 24.26512223 -15.12508244 22.18762365 -13 19 C-12.34 19 -11.68 19 -11 19 C-10.7525 18.29875 -10.505 17.5975 -10.25 16.875 C-8.83911974 13.62997541 -7.02104602 10.89683263 -5 8 Z " fill="#F06803" transform="translate(564,298)"/>
<path d="M0 0 C0.66 0.33 1.32 0.66 2 1 C0.68 3.31 -0.64 5.62 -2 8 C-2.99 8 -3.98 8 -5 8 C-5.03738281 8.61746094 -5.07476562 9.23492187 -5.11328125 9.87109375 C-5.52837546 15.21848391 -6.46322405 19.78777411 -8.30078125 24.81640625 C-9.37903564 28.18369229 -9.68054418 31.48598597 -10 35 C-10.33 35 -10.66 35 -11 35 C-11.54162543 23.00901482 -11.49224364 12.89222739 -3.25 3.3125 C-2.18229988 2.19320933 -1.10460558 1.0828858 0 0 Z " fill="#E08730" transform="translate(511,349)"/>
<path d="M0 0 C-1.35039355 4.91681754 -4.12209121 6.88658124 -8.25 9.5 C-9.38217717 10.23656584 -10.51239576 10.97615108 -11.640625 11.71875 C-12.19685547 12.08355469 -12.75308594 12.44835937 -13.32617188 12.82421875 C-15.07627809 14.05358157 -16.67799003 15.38464207 -18.296875 16.78125 C-21 19 -21 19 -23 19 C-22.8125 16.6875 -22.8125 16.6875 -22 14 C-20.36977377 12.94163323 -18.69576506 11.94982032 -17 11 C-12.54882777 8.0024137 -8.16583541 4.94724127 -4 1.5625 C-2 0 -2 0 0 0 Z " fill="#DB3E18" transform="translate(519,307)"/>
<path d="M0 0 C0.66 0 1.32 0 2 0 C2 0.99 2 1.98 2 3 C-12.95797274 12.22938744 -32.17180728 10.37844511 -49 10 C-49 9.67 -49 9.34 -49 9 C-48.34628418 8.98541748 -47.69256836 8.97083496 -47.01904297 8.95581055 C-22.05318577 9.46778156 -22.05318577 9.46778156 0 0 Z " fill="#F6CAB6" transform="translate(551,390)"/>
<path d="M0 0 C2.48836965 3.73255448 2.54226552 5.58440935 2 10 C-0.375 12.125 -0.375 12.125 -3 14 C-5.27710767 18.0987938 -5.53244296 22.40235575 -6 27 C-6.33 27 -6.66 27 -7 27 C-7.53414275 16.41606037 -5.53366082 8.96834685 0 0 Z " fill="#F06903" transform="translate(443,297)"/>
<path d="M0 0 C1.65 0 3.3 0 5 0 C5 0.99 5 1.98 5 3 C5.66 3 6.32 3 7 3 C7 4.65 7 6.3 7 8 C7.99 8 8.98 8 10 8 C11.18001154 10.70318971 12.34409319 13.41151991 13.5 16.125 C13.83386719 16.88554687 14.16773438 17.64609375 14.51171875 18.4296875 C16.35555702 22.79469239 17.43248515 26.16543387 17 31 C15.13883252 28.20824878 14.32440131 26.15017239 13.3125 23 C11.08567725 16.70317912 7.75407114 11.48738938 4 6 C3.18652115 4.77148093 2.37380767 3.54245398 1.5625 2.3125 C1.046875 1.549375 0.53125 0.78625 0 0 Z " fill="#F6D2C7" transform="translate(567,276)"/>
<path d="M0 0 C0.99 0.33 1.98 0.66 3 1 C2.113125 1.721875 1.22625 2.44375 0.3125 3.1875 C-2.62911087 5.6365298 -5.32856849 8.25636764 -8 11 C-8.5775 11.515625 -9.155 12.03125 -9.75 12.5625 C-11.15568851 13.92589204 -11.15568851 13.92589204 -11.3125 15.875 C-12.43338291 19.33954717 -15.1530712 20.81937368 -18 23 C-16.95904323 17.79521613 -15.62233685 13.15366176 -11.1875 10 C-10.135625 9.34 -9.08375 8.68 -8 8 C-6.33665531 6.22655211 -4.81140611 4.38958778 -3.296875 2.48828125 C-2 1 -2 1 0 0 Z " fill="#EB7109" transform="translate(465,269)"/>
<path d="M0 0 C0.33 0 0.66 0 1 0 C0.14843022 9.79305252 -4.14859128 19.142394 -10 27 C-10.66 27 -11.32 27 -12 27 C-11.67 25.68 -11.34 24.36 -11 23 C-10.34 23 -9.68 23 -9 23 C-8.87625 22.0925 -8.7525 21.185 -8.625 20.25 C-8 17 -8 17 -6.875 14.8125 C-5.66479088 12.84359635 -5.66479088 12.84359635 -7 10 C-6.01 9.67 -5.02 9.34 -4 9 C-3.26676204 6.98491642 -3.26676204 6.98491642 -3 5 C-2.34 5 -1.68 5 -1 5 C-0.67 3.35 -0.34 1.7 0 0 Z " fill="#E8EEEE" transform="translate(423,639)"/>
<path d="M0 0 C-2.20284289 2.54174179 -3.63966314 3.88249885 -6.875 4.9375 C-10.71848198 6.24428387 -12.95700445 8.34547197 -16 11 C-18.29814534 12.46245613 -20.56636253 13.78318127 -23 15 C-21.60311367 10.21672257 -19.26917884 8.23657006 -15.3125 5.3125 C-14.29800781 4.54550781 -13.28351562 3.77851563 -12.23828125 2.98828125 C-4.06280455 -2.03140227 -4.06280455 -2.03140227 0 0 Z " fill="#EB6C07" transform="translate(533,340)"/>
<path d="M0 0 C5.81034483 5.81034483 5.81034483 5.81034483 8.3125 8.6875 C8.82425781 9.26886719 9.33601562 9.85023438 9.86328125 10.44921875 C11 12 11 12 11 14 C8 13 8 13 6 10 C5.01 9.67 4.02 9.34 3 9 C2.34 11.97 1.68 14.94 1 18 C0.67 18 0.34 18 0 18 C0 12.06 0 6.12 0 0 Z " fill="#A44728" transform="translate(562,271)"/>
<path d="M0 0 C8.25 0 16.5 0 25 0 C25 0.33 25 0.66 25 1 C23.80761719 1.03738281 22.61523438 1.07476562 21.38671875 1.11328125 C19.820281 1.17894032 18.25387616 1.24538768 16.6875 1.3125 C15.90181641 1.33505859 15.11613281 1.35761719 14.30664062 1.38085938 C13.1706543 1.4340332 13.1706543 1.4340332 12.01171875 1.48828125 C10.96697388 1.52755737 10.96697388 1.52755737 9.90112305 1.56762695 C7.44350693 2.12656341 6.50665961 3.00338893 5 5 C5 5.99 5 6.98 5 8 C1.125 6.125 1.125 6.125 0 5 C0 3.35 0 1.7 0 0 Z " fill="#121C21" transform="translate(177,442)"/>
<path d="M0 0 C0.66 0 1.32 0 2 0 C1.79141357 0.53294678 1.58282715 1.06589355 1.36791992 1.61499023 C-0.78485476 7.50246903 -1.51802714 12.82105674 -1.6875 19.0625 C-1.72166016 19.92810547 -1.75582031 20.79371094 -1.79101562 21.68554688 C-1.87240114 23.78994387 -1.93789769 25.8949457 -2 28 C-4.52594205 24.21108692 -4.33125499 21.13866748 -4.3125 16.75 C-4.32861328 16.01136719 -4.34472656 15.27273438 -4.36132812 14.51171875 C-4.36594302 9.27842737 -3.38637382 5.66400149 -1 1 C-0.67 0.67 -0.34 0.34 0 0 Z " fill="#DB5E35" transform="translate(475,352)"/>
<path d="M0 0 C2.90724804 2.5405681 4.44452205 5.39109884 6.1875 8.8125 C6.71730469 9.82957031 7.24710938 10.84664063 7.79296875 11.89453125 C9.06789849 15.17469029 9.23439607 17.51531174 9 21 C6.1289248 19.5644624 5.77544554 17.65863801 4.5 14.75 C4.0771875 13.79609375 3.654375 12.8421875 3.21875 11.859375 C2.8165625 10.91578125 2.414375 9.9721875 2 9 C1.6184375 8.13890625 1.236875 7.2778125 0.84375 6.390625 C0 4 0 4 0 0 Z " fill="#C84419" transform="translate(573,285)"/>
<path d="M0 0 C0 4.50595294 -1.37892611 6.3311512 -4.4375 9.625 C-7 12 -7 12 -10 14 C-10.66 13.67 -11.32 13.34 -12 13 C-10.32939586 6.6888288 -5.18555656 3.4570377 0 0 Z " fill="#D6E4EE" transform="translate(449,747)"/>
<path d="M0 0 C0.66 0 1.32 0 2 0 C2.27567251 7.7800907 1.96888359 15.4283057 0 23 C-0.66 23.66 -1.32 24.32 -2 25 C-2.40997831 4.81995662 -2.40997831 4.81995662 0 0 Z " fill="#ECF5F8" transform="translate(426,613)"/>
<path d="M0 0 C0 0.33 0 0.66 0 1 C-0.66386719 1.09796875 -1.32773437 1.1959375 -2.01171875 1.296875 C-8.65646029 2.4221159 -12.4823521 3.87464398 -16.8125 9.25 C-17.204375 9.8275 -17.59625 10.405 -18 11 C-18.8125 8.875 -18.8125 8.875 -19 6 C-15.13181955 -2.20054255 -8.10561958 -0.59229155 0 0 Z " fill="#0D1A25" transform="translate(515,600)"/>
<path d="M0 0 C0.33 0.66 0.66 1.32 1 2 C1.99 2 2.98 2 4 2 C2.4838612 6.54841641 -1.02158328 8.51722867 -5 11 C-8 11.875 -8 11.875 -10 12 C-10 12.66 -10 13.32 -10 14 C-10.66 13.67 -11.32 13.34 -12 13 C-11.3125 11.0625 -11.3125 11.0625 -10 9 C-7.375 8.25 -7.375 8.25 -5 8 C-4.67 7.01 -4.34 6.02 -4 5 C-3.34 5 -2.68 5 -2 5 C-2 4.34 -2 3.68 -2 3 C-1.34 3 -0.68 3 0 3 C0 2.01 0 1.02 0 0 Z " fill="#27383F" transform="translate(827,464)"/>
<path d="M0 0 C0 4.02646222 -1.20506099 7.41012198 -3 11 C-3.66 11 -4.32 11 -5 11 C-5.4021875 12.299375 -5.4021875 12.299375 -5.8125 13.625 C-6.97433204 16.92704895 -8.38256562 19.89991744 -10 23 C-10.391875 23.78375 -10.78375 24.5675 -11.1875 25.375 C-11.455625 25.91125 -11.72375 26.4475 -12 27 C-13.23162779 23.30511662 -12.65511256 22.638588 -11.015625 19.21875 C-10.57476562 18.29449219 -10.13390625 17.37023437 -9.6796875 16.41796875 C-9.20789063 15.45503906 -8.73609375 14.49210937 -8.25 13.5 C-7.79367187 12.53707031 -7.33734375 11.57414062 -6.8671875 10.58203125 C-3.09798786 2.77129096 -3.09798786 2.77129096 0 0 Z " fill="#C97C30" transform="translate(448,286)"/>
<path d="M0 0 C2.38621806 3.57932709 2.4785033 4.77322084 2 9 C0.84984676 11.77536978 -0.51601471 14.38977587 -2 17 C-2.99 17 -3.98 17 -5 17 C-4.35841048 14.35307023 -3.71195217 11.70750071 -3.0625 9.0625 C-2.88009766 8.30775391 -2.69769531 7.55300781 -2.50976562 6.77539062 C-1.11328125 1.11328125 -1.11328125 1.11328125 0 0 Z " fill="#D8711A" transform="translate(562,289)"/>
<path d="M0 0 C0.66 0 1.32 0 2 0 C1.625 2.75 1.625 2.75 0 6 C-2.37609038 7.23270854 -4.78159272 8.05371494 -7.3125 8.921875 C-11.41855436 10.56907123 -14.63190094 13.17757062 -18 16 C-18.66 15.67 -19.32 15.34 -20 15 C-15.09958211 10.53517481 -10.00889543 6.97786148 -4.35546875 3.515625 C-1.93366728 2.07501409 -1.93366728 2.07501409 0 0 Z " fill="#D0761D" transform="translate(533,333)"/>
<path d="M0 0 C-1 2 -1 2 -2.921875 2.8671875 C-5.49604416 4.27040001 -6.05760233 5.48469088 -7.25 8.125 C-7.58515625 8.84945313 -7.9203125 9.57390625 -8.265625 10.3203125 C-8.50796875 10.87460937 -8.7503125 11.42890625 -9 12 C-9.66 12 -10.32 12 -11 12 C-11.75 10.375 -11.75 10.375 -12 8 C-9.34742453 3.00091546 -6.0730723 -2.02435743 0 0 Z " fill="#D6E3F1" transform="translate(508,490)"/>
<path d="M0 0 C0.66 0 1.32 0 2 0 C-0.65903501 8.01953645 -7.88289756 13.80273446 -15 18 C-15.66 17.67 -16.32 17.34 -17 17 C-15.6875 15 -15.6875 15 -14 13 C-13.01 13 -12.02 13 -11 13 C-11 12.34 -11 11.68 -11 11 C-10.01 11 -9.02 11 -8 11 C-7.95875 10.443125 -7.9175 9.88625 -7.875 9.3125 C-6.55618753 5.82706704 -3.8706356 4.27258651 -1 2 C-0.67 1.34 -0.34 0.68 0 0 Z " fill="#D0481D" transform="translate(571,370)"/>
<path d="M0 0 C0.99 0.33 1.98 0.66 3 1 C-2.18750336 8.48912602 -8.7225622 15.8612811 -17 20 C-17 19.01 -17 18.02 -17 17 C-15.171875 15.31640625 -15.171875 15.31640625 -12.75 13.5625 C-6.62868923 9.27325754 -6.62868923 9.27325754 -3 3 C-2.34 3 -1.68 3 -1 3 C-0.67 2.01 -0.34 1.02 0 0 Z " fill="#F9EDC6" transform="translate(547,316)"/>
<path d="M0 0 C0.33 0.99 0.66 1.98 1 3 C1.66 3 2.32 3 3 3 C3.06058594 3.63808594 3.12117187 4.27617187 3.18359375 4.93359375 C3.26738281 5.75988281 3.35117187 6.58617187 3.4375 7.4375 C3.55931641 8.67306641 3.55931641 8.67306641 3.68359375 9.93359375 C3.78930815 11.98662025 3.78930815 11.98662025 5 13 C5.25156269 16.63899175 5.18522226 20.29083673 5.1875 23.9375 C5.19974609 24.96552734 5.21199219 25.99355469 5.22460938 27.05273438 C5.22654297 28.03435547 5.22847656 29.01597656 5.23046875 30.02734375 C5.23457764 30.93218506 5.23868652 31.83702637 5.24291992 32.76928711 C5 35 5 35 3 37 C3.33 29.41 3.66 21.82 4 14 C3.34 14 2.68 14 2 14 C-0.29612756 4.58997722 -0.29612756 4.58997722 0 0 Z " fill="#EEDADB" transform="translate(584,307)"/>
<path d="M0 0 C1.92732091 5.78196272 -1.37472377 12.53412548 -3.88085938 17.87841797 C-5.79690026 21.65617898 -7.86747743 25.33996829 -10 29 C-11 26 -11 26 -10.42675781 24.24169922 C-10.10545898 23.60248535 -9.78416016 22.96327148 -9.453125 22.3046875 C-8.92912109 21.2362561 -8.92912109 21.2362561 -8.39453125 20.14624023 C-8.01683594 19.39673096 -7.63914062 18.64722168 -7.25 17.875 C-4.37754276 12.00149584 -1.83135094 6.29526887 0 0 Z " fill="#FCEBC8" transform="translate(561,287)"/>
<path d="M0 0 C5.75 1.625 5.75 1.625 8 5 C8.99 5 9.98 5 11 5 C11 5.99 11 6.98 11 8 C12.64821244 9.03013277 14.31503702 10.03114628 16 11 C16 11.66 16 12.32 16 13 C12.15326245 12.40062461 9.87362826 10.59982931 6.875 8.1875 C5.57175781 7.15689453 5.57175781 7.15689453 4.2421875 6.10546875 C2.12787917 4.12008166 1.06509119 2.66272798 0 0 Z " fill="#F1E1DF" transform="translate(500,207)"/>
<path d="M0 0 C0 2.31 0 4.62 0 7 C-1.65 6.67 -3.3 6.34 -5 6 C-5.39832031 6.84884766 -5.39832031 6.84884766 -5.8046875 7.71484375 C-6.33449219 8.81505859 -6.33449219 8.81505859 -6.875 9.9375 C-7.22304688 10.66839844 -7.57109375 11.39929688 -7.9296875 12.15234375 C-9 14 -9 14 -11 15 C-11.8359375 12.83203125 -11.8359375 12.83203125 -12 10 C-10.23949498 7.92792794 -8.6921314 6.38910207 -6.625 4.6875 C-6.10421875 4.23310547 -5.5834375 3.77871094 -5.046875 3.31054688 C-1.20365367 0 -1.20365367 0 0 0 Z " fill="#D8E4F1" transform="translate(799,497)"/>
<path d="M0 0 C0.33 0.99 0.66 1.98 1 3 C-0.72772256 4.89716645 -2.45712734 6.79275305 -4.1875 8.6875 C-4.67025391 9.21794922 -5.15300781 9.74839844 -5.65039062 10.29492188 C-14.962629 20.48213567 -14.962629 20.48213567 -22 22 C-19.7001472 19.51615898 -17.33770594 17.47727091 -14.5625 15.5625 C-8.50274467 11.30777817 -4.29592349 5.94933735 0 0 Z " fill="#F8D2C0" transform="translate(528,298)"/>
<path d="M0 0 C1 3 1 3 -0.1171875 5.3125 C-4.67009005 12.27338212 -9.60288334 18.672768 -15 25 C-15.33 24.01 -15.66 23.02 -16 22 C-15.34 22 -14.68 22 -14 22 C-13.7525 21.46375 -13.505 20.9275 -13.25 20.375 C-11.20552854 16.49050422 -8.78317394 12.95449324 -6 9.5625 C-3.62467356 6.51911299 -1.85706406 3.38250954 0 0 Z " fill="#FAE6BE" transform="translate(488,233)"/>
<path d="M0 0 C0.99 0.33 1.98 0.66 3 1 C1.515 3.475 1.515 3.475 0 6 C-1 3 -1 3 0 0 Z M-2 6 C-1.67 6.66 -1.34 7.32 -1 8 C-0.34 8.33 0.32 8.66 1 9 C0.835 9.78375 0.67 10.5675 0.5 11.375 C-0.0623707 13.88208039 -0.0623707 13.88208039 0 16 C-0.66 16.66 -1.32 17.32 -2 18 C-2.64767793 20.57061311 -2.64767793 20.57061311 -3 23 C-3.33 23 -3.66 23 -4 23 C-4.3690205 11.47835991 -4.3690205 11.47835991 -2 6 Z " fill="#D5EAF5" transform="translate(597,584)"/>
<path d="M0 0 C4.2012424 3.70697859 6.24663769 8.76901453 8 14 C8.1150341 16.68259515 7.75304909 18.39329163 7 21 C6.67 21 6.34 21 6 21 C6 18.36 6 15.72 6 13 C5.34 13 4.68 13 4 13 C1.7220142 11.30697846 1.06740192 10.32671925 0.48828125 7.51953125 C0.43027344 6.62621094 0.37226562 5.73289063 0.3125 4.8125 C0.24675781 3.91144531 0.18101562 3.01039063 0.11328125 2.08203125 C0.07589844 1.39496094 0.03851562 0.70789063 0 0 Z " fill="#D84A1F" transform="translate(527,236)"/>
<path d="M0 0 C0.33 0 0.66 0 1 0 C3.28692899 9.96447633 3.83282018 19.05015627 1 29 C0.34 29.33 -0.32 29.66 -1 30 C-0.83628906 29.09121094 -0.67257812 28.18242187 -0.50390625 27.24609375 C0.26393579 21.87119944 0.1062149 16.47978455 0.0625 11.0625 C0.05798828 9.99708984 0.05347656 8.93167969 0.04882812 7.83398438 C0.03711787 5.22259709 0.02071724 2.61132876 0 0 Z " fill="#DC6432" transform="translate(535,254)"/>
<path d="M0 0 C0.33 0 0.66 0 1 0 C1.12117188 1.21816406 1.24234375 2.43632812 1.3671875 3.69140625 C1.53613072 5.31513829 1.70541996 6.93883435 1.875 8.5625 C1.95363281 9.36236328 2.03226562 10.16222656 2.11328125 10.98632812 C2.63137418 15.86835763 3.50545842 20.32170807 5 25 C4.01 25.33 3.02 25.66 2 26 C-1.04939048 22.95060952 0.00295583 14.18178348 -0.0625 10.15625 C-0.0625 6.77022678 -0.04448378 3.38570986 0 0 Z " fill="#E7E3E9" transform="translate(475,370)"/>
<path d="M0 0 C0.66 0 1.32 0 2 0 C2 10.56 2 21.12 2 32 C-1 28 -1 28 -1.07421875 26.0546875 C-0.94660156 25.33539063 -0.81898438 24.61609375 -0.6875 23.875 C0.03187154 18.68301409 0.0927244 13.60535747 0.0625 8.375 C0.05633667 7.14692627 0.05633667 7.14692627 0.05004883 5.89404297 C0.03737193 3.92933205 0.01926135 1.9646574 0 0 Z " fill="#E1EBE6" transform="translate(497,366)"/>
<path d="M0 0 C0.66 0.66 1.32 1.32 2 2 C0.35 5.3 -1.3 8.6 -3 12 C-4.32 12 -5.64 12 -7 12 C-5.63855967 6.80177328 -3.53269829 3.90456127 0 0 Z " fill="#D9EAF7" transform="translate(606,569)"/>
<path d="M0 0 C2 1 2 1 3.375 3.8125 C4.79914694 7.01145158 4.79914694 7.01145158 7.0625 9.0625 C9.26760473 11.26760473 9.97817248 13.0804928 11 16 C11.65213539 17.34050052 12.31379969 18.67661368 13 20 C8.84916359 17.04134778 6.2568808 13.77180651 3.6875 9.4375 C3.32849609 8.86064453 2.96949219 8.28378906 2.59960938 7.68945312 C0.91307595 4.90426364 0 3.31407579 0 0 Z " fill="#D25C24" transform="translate(439,356)"/>
<path d="M0 0 C0.556875 0.28875 1.11375 0.5775 1.6875 0.875 C4.08494645 2.0413253 6.51596939 3.0339881 9 4 C9 4.99 9 5.98 9 7 C9.61875 7.0825 10.2375 7.165 10.875 7.25 C13 8 13 8 14.25 10.0625 C14.4975 10.701875 14.745 11.34125 15 12 C10.95264468 10.59983383 8.01519578 8.6818763 4.6875 6 C3.80449219 5.29875 2.92148437 4.5975 2.01171875 3.875 C1.34785156 3.25625 0.68398438 2.6375 0 2 C0 1.34 0 0.68 0 0 Z " fill="#D4511D" transform="translate(452,376)"/>
<path d="M0 0 C0.33 0 0.66 0 1 0 C1.01981934 0.55349121 1.03963867 1.10698242 1.06005859 1.67724609 C1.54147006 15.95786171 1.54147006 15.95786171 4 30 C1 28 1 28 0 25 C-0.08266486 23.08093083 -0.10740663 21.15910526 -0.09765625 19.23828125 C-0.09443359 18.12001953 -0.09121094 17.00175781 -0.08789062 15.84960938 C-0.07951172 14.68236328 -0.07113281 13.51511719 -0.0625 12.3125 C-0.05573242 10.54422852 -0.05573242 10.54422852 -0.04882812 8.74023438 C-0.03703273 5.82677211 -0.0205727 2.91341137 0 0 Z " fill="#F5CAAE" transform="translate(433,324)"/>
<path d="M0 0 C0 0.99 0 1.98 0 3 C-1.03125 3.515625 -2.0625 4.03125 -3.125 4.5625 C-6.84377567 6.65195408 -9.16206025 9.24970048 -11.73828125 12.609375 C-12.15464844 13.06828125 -12.57101562 13.5271875 -13 14 C-13.66 14 -14.32 14 -15 14 C-14.8125 11.6875 -14.8125 11.6875 -14 9 C-12 7.5625 -12 7.5625 -9 6 C-7.38666795 4.95146929 -5.7830363 3.88791659 -4.1875 2.8125 C-3.39730469 2.28269531 -2.60710937 1.75289063 -1.79296875 1.20703125 C-1.20128906 0.80871094 -0.60960937 0.41039062 0 0 Z " fill="#E13D16" transform="translate(511,312)"/>
<path d="M0 0 C0 0.99 0 1.98 0 3 C0.0825 3.825 0.165 4.65 0.25 5.5 C0 8 0 8 -2 9.8125 C-2.66 10.204375 -3.32 10.59625 -4 11 C-5.21380846 5.65924276 -5.21380846 5.65924276 -4.25 2.6875 C-3 1 -3 1 0 0 Z " fill="#F17005" transform="translate(509,356)"/>
<path d="M0 0 C1.32 0.33 2.64 0.66 4 1 C0.25 4 0.25 4 -2 4 C-2.10634766 4.93585938 -2.10634766 4.93585938 -2.21484375 5.890625 C-3 8 -3 8 -5.06640625 9.046875 C-5.89011719 9.27890625 -6.71382812 9.5109375 -7.5625 9.75 C-8.80193359 10.11351562 -8.80193359 10.11351562 -10.06640625 10.484375 C-11.02353516 10.73960937 -11.02353516 10.73960937 -12 11 C-7.375 6.125 -7.375 6.125 -4 5 C-3.67 4.34 -3.34 3.68 -3 3 C-2.34 3 -1.68 3 -1 3 C-0.67 2.01 -0.34 1.02 0 0 Z " fill="#EBEEE2" transform="translate(532,329)"/>
<path d="M0 0 C0 0.66 0 1.32 0 2 C-8.261959 6.40774487 -8.261959 6.40774487 -13 7 C-13 6.34 -13 5.68 -13 5 C-10.91796875 3.45703125 -10.91796875 3.45703125 -8.1875 1.8125 C-7.29417969 1.26207031 -6.40085937 0.71164062 -5.48046875 0.14453125 C-3 -1 -3 -1 0 0 Z " fill="#D7E4EA" transform="translate(761,533)"/>
<path d="M0 0 C0.66 0.33 1.32 0.66 2 1 C1.67 8.59 1.34 16.18 1 24 C0.67 24 0.34 24 0 24 C-0.19632025 20.3754207 -0.38055978 16.75032733 -0.5625 13.125 C-0.64661133 11.57619141 -0.64661133 11.57619141 -0.73242188 9.99609375 C-0.78076172 9.00996094 -0.82910156 8.02382813 -0.87890625 7.0078125 C-0.9260376 6.09660645 -0.97316895 5.18540039 -1.02172852 4.24658203 C-1 2 -1 2 0 0 Z " fill="#E5670F" transform="translate(502,374)"/>
<path d="M0 0 C3.27235512 3.15115678 6.2025724 6.42550918 9 10 C9 10.66 9 11.32 9 12 C9.639375 12.28875 10.27875 12.5775 10.9375 12.875 C13 14 13 14 14 16 C9.04388241 15.32214535 6.8845855 11.98722216 3.7734375 8.3671875 C1.7714068 5.69487339 0.67172225 3.27464596 0 0 Z " fill="#FBD2B9" transform="translate(443,366)"/>
<path d="M0 0 C0.58984375 1.84765625 0.58984375 1.84765625 1 4 C0.0126546 5.67419438 -0.98812105 7.34051852 -2 9 C-2.25196129 11.70953551 -2.25196129 11.70953551 -2 14 C-2.66 14 -3.32 14 -4 14 C-4.33 14.66 -4.66 15.32 -5 16 C-5.66 16 -6.32 16 -7 16 C-6.40165275 11.85701333 -4.99335715 8.81805623 -2.9375 5.1875 C-2.11572266 3.72376953 -2.11572266 3.72376953 -1.27734375 2.23046875 C-0.85582031 1.49441406 -0.43429687 0.75835937 0 0 Z " fill="#F0D9D3" transform="translate(536,284)"/>
<path d="M0 0 C0.66 0 1.32 0 2 0 C0.11408904 6.03491509 -3.75601839 11.50401226 -9 15 C-7.38343185 11.60520688 -5.49068911 8.43847663 -3.5 5.25 C-2.8915625 4.26515625 -2.283125 3.2803125 -1.65625 2.265625 C-1.1096875 1.51796875 -0.563125 0.7703125 0 0 Z " fill="#EBF0F1" transform="translate(409,667)"/>
<path d="M0 0 C4.18423892 3.50897269 8.19588166 7.08060535 12 11 C11.67 11.99 11.34 12.98 11 14 C10.34 13.34 9.68 12.68 9 12 C8.34 11.67 7.68 11.34 7 11 C6.525625 10.175 6.05125 9.35 5.5625 8.5 C4.18680459 5.70844517 4.18680459 5.70844517 1 5 C0.67 3.35 0.34 1.7 0 0 Z " fill="#182229" transform="translate(617,683)"/>
<path d="M0 0 C0.66 0.33 1.32 0.66 2 1 C0.68 3.31 -0.64 5.62 -2 8 C-2.99 8 -3.98 8 -5 8 C-5.33 9.32 -5.66 10.64 -6 12 C-6.66 12 -7.32 12 -8 12 C-6.49087042 7.01987239 -3.44338151 3.75740058 0 0 Z " fill="#CD7924" transform="translate(511,349)"/>
<path d="M0 0 C0.66 0.66 1.32 1.32 2 2 C1.60871092 4.93466812 0.5574599 7.49075904 -1 10 C-1.99 10.33 -2.98 10.66 -4 11 C-4.33 10.34 -4.66 9.68 -5 9 C-4.00390625 6.8359375 -4.00390625 6.8359375 -2.5625 4.375 C-2.08941406 3.55773437 -1.61632812 2.74046875 -1.12890625 1.8984375 C-0.75636719 1.27195312 -0.38382812 0.64546875 0 0 Z " fill="#2B363A" transform="translate(416,659)"/>
<path d="M0 0 C-1.28627711 1.17260611 -2.57919783 2.3379283 -3.875 3.5 C-4.59429688 4.1496875 -5.31359375 4.799375 -6.0546875 5.46875 C-8 7 -8 7 -10 7 C-10 5.35 -10 3.7 -10 2 C-3.375 -1.125 -3.375 -1.125 0 0 Z " fill="#DBE8ED" transform="translate(632,553)"/>
<path d="M0 0 C1.67110042 2.96178773 2.32682752 5.37071192 2.625 8.75 C2.69976562 9.54921875 2.77453125 10.3484375 2.8515625 11.171875 C2.92503906 12.07679688 2.92503906 12.07679688 3 13 C-0.93673644 11.68775452 -3.22719294 10.08089673 -6 7 C-3.69 7.66 -1.38 8.32 1 9 C0.67 8.34 0.34 7.68 0 7 C-0.04022391 4.6670134 -0.04320247 2.33293334 0 0 Z " fill="#C15431" transform="translate(473,381)"/>
<path d="M0 0 C1.32 0.66 2.64 1.32 4 2 C2.2335343 3.0076952 0.46166177 4.00591714 -1.3125 5 C-2.79169922 5.8353125 -2.79169922 5.8353125 -4.30078125 6.6875 C-7 8 -7 8 -10 8 C-10 7.34 -10 6.68 -10 6 C-8.02 5.67 -6.04 5.34 -4 5 C-4 4.34 -4 3.68 -4 3 C-3.01 2.67 -2.02 2.34 -1 2 C-0.67 1.34 -0.34 0.68 0 0 Z " fill="#E7EFEC" transform="translate(361,709)"/>
<path d="M0 0 C0.66 0.33 1.32 0.66 2 1 C-0.97088618 4.99926986 -4.12948725 7.92118304 -8 11 C-8.33 10.01 -8.66 9.02 -9 8 C-6.03 5.36 -3.06 2.72 0 0 Z " fill="#1C272A" transform="translate(390,693)"/>
<path d="M0 0 C0.66 0.33 1.32 0.66 2 1 C1.875 2.8125 1.875 2.8125 1 5 C-2.0625 6.75 -2.0625 6.75 -5 8 C-4.67 7.01 -4.34 6.02 -4 5 C-3.01 5 -2.02 5 -1 5 C-0.67 3.35 -0.34 1.7 0 0 Z M-6 8 C-5.01 8.33 -4.02 8.66 -3 9 C-3.33 9.66 -3.66 10.32 -4 11 C-6.0625 11.625 -6.0625 11.625 -8 12 C-7.34 10.68 -6.68 9.36 -6 8 Z " fill="#F26802" transform="translate(482,250)"/>
<path d="M0 0 C0.33 0 0.66 0 1 0 C1 5.61 1 11.22 1 17 C-0.98 16.67 -2.96 16.34 -5 16 C-4.34 15.67 -3.68 15.34 -3 15 C-3 14.34 -3 13.68 -3 13 C-2.34 13 -1.68 13 -1 13 C-0.67 8.71 -0.34 4.42 0 0 Z " fill="#ECF3F5" transform="translate(315,763)"/>
<path d="M0 0 C2.33528415 0.17298401 3.69177582 0.70225369 5.37890625 2.33203125 C9 6.57211538 9 6.57211538 9 9 C6 8 6 8 4 5 C1.94996045 3.80767387 1.94996045 3.80767387 0 3 C0 2.01 0 1.02 0 0 Z " fill="#BB330E" transform="translate(564,276)"/>
<path d="M0 0 C0.66 0.66 1.32 1.32 2 2 C1.34 3.65 0.68 5.3 0 7 C-1.98 7 -3.96 7 -6 7 C-4.02 4.69 -2.04 2.38 0 0 Z " fill="#E3EBF5" transform="translate(815,481)"/>
<path d="M0 0 C1 2 1 2 0.51171875 3.8046875 C-0.31273853 5.87559915 -1.14066165 7.94328972 -2 10 C-2.33 10.804375 -2.66 11.60875 -3 12.4375 C-4 14 -4 14 -7 15 C-5.63408831 11.45756548 -4.09068516 8.07372071 -2.375 4.6875 C-1.70597656 3.36298828 -1.70597656 3.36298828 -1.0234375 2.01171875 C-0.68570313 1.34785156 -0.34796875 0.68398438 0 0 Z " fill="#F7D4C8" transform="translate(584,351)"/>
<path d="M0 0 C1.44349674 0.73839246 2.87959051 1.49126643 4.3125 2.25 C5.11300781 2.66765625 5.91351563 3.0853125 6.73828125 3.515625 C9.13190204 5.08656783 10.43301591 6.6267037 12 9 C10.02 8.34 8.04 7.68 6 7 C5.34 7.66 4.68 8.32 4 9 C3.896875 8.21625 3.79375 7.4325 3.6875 6.625 C3.22404978 3.66954819 3.22404978 3.66954819 0 2 C0 1.34 0 0.68 0 0 Z " fill="#E8560D" transform="translate(496,209)"/>
<path d="M0 0 C2.31 0.33 4.62 0.66 7 1 C6.401875 1.268125 5.80375 1.53625 5.1875 1.8125 C2.26040485 3.40149451 0.4905219 5.01895619 -1 8 C-1.66 8 -2.32 8 -3 8 C-3.33 7.01 -3.66 6.02 -4 5 C-3.525625 4.54625 -3.05125 4.0925 -2.5625 3.625 C-0.90972192 2.06741796 -0.90972192 2.06741796 0 0 Z " fill="#E5EBED" transform="translate(240,777)"/>
<path d="M0 0 C0.99 0.33 1.98 0.66 3 1 C2.4375 2.9375 2.4375 2.9375 1 5 C-2.625 5.75 -2.625 5.75 -6 6 C-2.25 1.125 -2.25 1.125 0 0 Z " fill="#CCD9E6" transform="translate(505,602)"/>
<path d="M0 0 C0.33 0.99 0.66 1.98 1 3 C-1.15343189 6.23014784 -2.27059611 7.75686537 -6 9 C-6.66 8.34 -7.32 7.68 -8 7 C-5.36 4.69 -2.72 2.38 0 0 Z " fill="#F2D3C6" transform="translate(567,378)"/>
<path d="M0 0 C0.66 0 1.32 0 2 0 C1.01 2.97 0.02 5.94 -1 9 C-1.66 9 -2.32 9 -3 9 C-3.33 9.99 -3.66 10.98 -4 12 C-3.53680089 7.27536912 -2.90108294 3.82942948 0 0 Z " fill="#E15626" transform="translate(475,352)"/>
<path d="M0 0 C0.99 0.33 1.98 0.66 3 1 C2.34 3.97 1.68 6.94 1 10 C0.34 10 -0.32 10 -1 10 C-2.46726798 6.18510326 -1.43336419 3.70988378 0 0 Z " fill="#2B4A54" transform="translate(593,586)"/>
<path d="M0 0 C0.99 0.33 1.98 0.66 3 1 C1.50260417 2.20442708 0.00520833 3.40885417 -1.4921875 4.61328125 C-3.25292107 6.12270545 -3.25292107 6.12270545 -5 9 C-5.66 9 -6.32 9 -7 9 C-5.66087415 4.61740632 -3.87774964 2.45906075 0 0 Z " fill="#F16F06" transform="translate(465,269)"/>
<path d="M0 0 C0.33 0 0.66 0 1 0 C1.19532961 1.7699868 1.38098882 3.54104279 1.5625 5.3125 C1.66691406 6.29863281 1.77132813 7.28476563 1.87890625 8.30078125 C2 11 2 11 1 14 C0.01 14 -0.98 14 -2 14 C-1.34 9.38 -0.68 4.76 0 0 Z " fill="#EB6C09" transform="translate(495,210)"/>
<path d="M0 0 C-0.33 0.66 -0.66 1.32 -1 2 C-4.5 2.5 -4.5 2.5 -8 3 C-8.33 3.66 -8.66 4.32 -9 5 C-9.66 4.01 -10.32 3.02 -11 2 C-9.73392393 1.46770674 -8.46189588 0.94955456 -7.1875 0.4375 C-6.47980469 0.14746094 -5.77210938 -0.14257812 -5.04296875 -0.44140625 C-3 -1 -3 -1 0 0 Z " fill="#CDDDE2" transform="translate(471,738)"/>
<path d="M0 0 C0.99 0.33 1.98 0.66 3 1 C2.75 2.875 2.75 2.875 2 5 C-0.0625 6.25 -0.0625 6.25 -2 7 C-2 6.34 -2 5.68 -2 5 C-2.66 4.67 -3.32 4.34 -4 4 C-2.68 2.68 -1.36 1.36 0 0 Z " fill="#29353C" transform="translate(396,687)"/>
<path d="M0 0 C0 3 0 3 -1.53125 4.82421875 C-2.1809375 5.43910156 -2.830625 6.05398438 -3.5 6.6875 C-4.1496875 7.31011719 -4.799375 7.93273437 -5.46875 8.57421875 C-5.9740625 9.04472656 -6.479375 9.51523437 -7 10 C-7.66 9.67 -8.32 9.34 -9 9 C-8.0409375 8.1028125 -8.0409375 8.1028125 -7.0625 7.1875 C-4.79689611 5.09189663 -4.79689611 5.09189663 -4 2 C-1.9375 0.8125 -1.9375 0.8125 0 0 Z " fill="#F0F5F6" transform="translate(398,683)"/>
<path d="M0 0 C1.7936743 1.1217963 3.5848773 2.24754483 5.375 3.375 C6.37273437 4.00148438 7.37046875 4.62796875 8.3984375 5.2734375 C11 7 11 7 13 9 C8.9767846 8.35628554 5.20445036 6.48621148 2 4 C0.7890625 1.86328125 0.7890625 1.86328125 0 0 Z " fill="#FDD2B6" transform="translate(460,384)"/>
<path d="M0 0 C0.99 0.33 1.98 0.66 3 1 C0.03 4.96 0.03 4.96 -3 9 C-4 5 -4 5 -3 2 C-2.01 1.34 -1.02 0.68 0 0 Z " fill="#DC5C30" transform="translate(484,336)"/>
<path d="M0 0 C0.33 0 0.66 0 1 0 C1.2295711 3.36704285 1.33943529 5.41370268 -0.375 8.375 C-0.91125 8.91125 -1.4475 9.4475 -2 10 C-2.66 10 -3.32 10 -4 10 C-2.99806563 6.20696275 -2.18975773 3.28463659 0 0 Z " fill="#E3710B" transform="translate(441,301)"/>
<path d="M0 0 C0 3.96130371 -1.34877125 4.82914401 -4 7.6875 C-4.7425 8.49574219 -5.485 9.30398438 -6.25 10.13671875 C-6.8275 10.75160156 -7.405 11.36648438 -8 12 C-8.66 11.67 -9.32 11.34 -10 11 C-6.7 7.37 -3.4 3.74 0 0 Z " fill="#D48431" transform="translate(463,268)"/>
<path d="M0 0 C1.2065625 0.0309375 1.2065625 0.0309375 2.4375 0.0625 C-1.1875 4.9375 -1.1875 4.9375 -4.5625 6.0625 C-3.48963568 0.08511307 -3.48963568 0.08511307 0 0 Z " fill="#E5801E" transform="translate(468.5625,263.9375)"/>
<path d="M0 0 C0 0.66 0 1.32 0 2 C-6.28571429 4.42857143 -6.28571429 4.42857143 -10 3 C-6.48812804 0.59185923 -4.27343092 -0.36629408 0 0 Z " fill="#0A181F" transform="translate(477,733)"/>
<path d="M0 0 C2.0625 0.4375 2.0625 0.4375 4 1 C-3.28571429 4.42857143 -3.28571429 4.42857143 -8 4 C-8.33 3.34 -8.66 2.68 -9 2 C-6.94921875 1.77213542 -4.8984375 1.54427083 -2.84765625 1.31640625 C-0.98859771 1.18113386 -0.98859771 1.18113386 0 0 Z " fill="#D1DDE3" transform="translate(515,621)"/>
<path d="M0 0 C2 2 2 2 2 3 C5.3 3.33 8.6 3.66 12 4 C12 4.33 12 4.66 12 5 C6.06 5.495 6.06 5.495 0 6 C0 4.02 0 2.04 0 0 Z " fill="#0B1824" transform="translate(671,543)"/>
<path d="M0 0 C0.66 0 1.32 0 2 0 C2 0.99 2 1.98 2 3 C2.66 2.67 3.32 2.34 4 2 C3.67 2.99 3.34 3.98 3 5 C1.35 5.33 -0.3 5.66 -2 6 C-2 3 -2 3 0 0 Z " fill="#E4E9F1" transform="translate(826,471)"/>
<path d="M0 0 C1.485 0.99 1.485 0.99 3 2 C2.74438677 4.3431213 2.40729228 6.67843403 2 9 C1.01 9.495 1.01 9.495 0 10 C0 6.7 0 3.4 0 0 Z " fill="#E0E7EE" transform="translate(845,441)"/>
<path d="M0 0 C0.99 0.33 1.98 0.66 3 1 C3 1.66 3 2.32 3 3 C3.99 2.67 4.98 2.34 6 2 C6.33 2.99 6.66 3.98 7 5 C9.01508358 5.73323796 9.01508358 5.73323796 11 6 C7.14521782 6.35858439 5.42240542 6.2754818 2.125 4.125 C1.42375 3.42375 0.7225 2.7225 0 2 C0 1.34 0 0.68 0 0 Z " fill="#95A3A8" transform="translate(239,791)"/>
<path d="M0 0 C1.98 0.66 3.96 1.32 6 2 C6 2.66 6 3.32 6 4 C1.25 5.125 1.25 5.125 -1 4 C-0.67 2.68 -0.34 1.36 0 0 Z " fill="#1A2025" transform="translate(657,714)"/>
<path d="M0 0 C0.66 0 1.32 0 2 0 C2 3.63 2 7.26 2 11 C-0.14208427 7.7868736 -0.59687808 5.78934603 -1 2 C-0.67 1.34 -0.34 0.68 0 0 Z " fill="#E7ECF5" transform="translate(426,613)"/>
<path d="M0 0 C0.33 0.99 0.66 1.98 1 3 C1.66 3 2.32 3 3 3 C3 6.63 3 10.26 3 14 C2.67 14 2.34 14 2 14 C-0.29612756 4.58997722 -0.29612756 4.58997722 0 0 Z " fill="#F8CBBD" transform="translate(584,307)"/>
<path d="M0 0 C0 3.42085146 -0.78105603 5.81720186 -2 9 C-2.66 9.66 -3.32 10.32 -4 11 C-4.36630156 7.06225823 -4.30233203 5.43460229 -2 2.125 C-1.34 1.42375 -0.68 0.7225 0 0 Z " fill="#D97A23" transform="translate(448,286)"/>
<path d="M0 0 C1.98 0.99 1.98 0.99 4 2 C3.34 2.66 2.68 3.32 2 4 C1.53709779 6.66242821 1.53709779 6.66242821 1.375 9.625 C1.30023438 10.62789062 1.22546875 11.63078125 1.1484375 12.6640625 C1.09945313 13.43492187 1.05046875 14.20578125 1 15 C0.67 15 0.34 15 0 15 C0 10.05 0 5.1 0 0 Z " fill="#AC682E" transform="translate(493,205)"/>
<path d="M0 0 C1.7074998 1.28062485 3.37373596 2.61767557 5 4 C5 4.66 5 5.32 5 6 C5.66 6 6.32 6 7 6 C6.67 6.66 6.34 7.32 6 8 C2.42895561 6.12050295 0.45255699 4.82946843 -1 1 C-0.67 0.67 -0.34 0.34 0 0 Z " fill="#192228" transform="translate(402,556)"/>
<path d="M0 0 C0.33 0 0.66 0 1 0 C1 2.31 1 4.62 1 7 C-0.32 6.67 -1.64 6.34 -3 6 C-2.42655063 3.13275314 -2.1385485 2.1385485 0 0 Z " fill="#E4EBFA" transform="translate(798,497)"/>
<path d="M0 0 C0.66 0.33 1.32 0.66 2 1 C-0.31 3.31 -2.62 5.62 -5 8 C-5.99 7.67 -6.98 7.34 -8 7 C-6.68 6.34 -5.36 5.68 -4 5 C-4 4.34 -4 3.68 -4 3 C-3.34 3 -2.68 3 -2 3 C-2 2.34 -2 1.68 -2 1 C-1.34 0.67 -0.68 0.34 0 0 Z " fill="#313F47" transform="translate(819,475)"/>
<path d="M0 0 C0.33 0 0.66 0 1 0 C1.33 1.98 1.66 3.96 2 6 C0.68 6.99 -0.64 7.98 -2 9 C-2.33 8.34 -2.66 7.68 -3 7 C-2.06421005 4.64018187 -1.06652192 2.30368736 0 0 Z " fill="#DDE6EE" transform="translate(845,455)"/>
<path d="M0 0 C0 3 0 3 -1.3125 4.38671875 C-2.875 5.59114583 -4.4375 6.79557292 -6 8 C-6.66 7.67 -7.32 7.34 -8 7 C-5.78972846 3.62642766 -3.53600465 1.91135386 0 0 Z " fill="#DF791B" transform="translate(457,277)"/>
<path d="M0 0 C0.99 0.33 1.98 0.66 3 1 C1.8125 3.5 1.8125 3.5 0 6 C-2.6875 6.3125 -2.6875 6.3125 -5 6 C-3.35 4.02 -1.7 2.04 0 0 Z " fill="#DBEAF8" transform="translate(613,561)"/>
<path d="M0 0 C0.66 0.33 1.32 0.66 2 1 C-2.455 3.97 -2.455 3.97 -7 7 C-7.66 6.67 -8.32 6.34 -9 6 C-3.375 1.125 -3.375 1.125 0 0 Z " fill="#C54523" transform="translate(511,314)"/>
<path d="M0 0 C-0.66 1.32 -1.32 2.64 -2 4 C-2.66 4 -3.32 4 -4 4 C-4.33 5.32 -4.66 6.64 -5 8 C-5.66 6.68 -6.32 5.36 -7 4 C-2.25 0 -2.25 0 0 0 Z " fill="#F23D0A" transform="translate(527,297)"/>
<path d="M0 0 C0.66 0.33 1.32 0.66 2 1 C0.25 3.0625 0.25 3.0625 -2 5 C-4.25 4.75 -4.25 4.75 -6 4 C-3.94766315 1.7522025 -2.99332739 0.9977758 0 0 Z " fill="#F36403" transform="translate(531,339)"/>
<path d="M0 0 C0.99 0.33 1.98 0.66 3 1 C1.71475739 1.86380259 0.42157581 2.71580369 -0.875 3.5625 C-1.59429687 4.03816406 -2.31359375 4.51382812 -3.0546875 5.00390625 C-3.69664062 5.33261719 -4.33859375 5.66132813 -5 6 C-5.66 5.67 -6.32 5.34 -7 5 C-5.90554162 4.13342884 -4.79902219 3.28207276 -3.6875 2.4375 C-3.07261719 1.96183594 -2.45773437 1.48617188 -1.82421875 0.99609375 C-1.22222656 0.66738281 -0.62023437 0.33867187 0 0 Z " fill="#DFE5EB" transform="translate(506,321)"/>
<path d="M0 0 C0.66 0.33 1.32 0.66 2 1 C1.34 4.96 0.68 8.92 0 13 C-0.33 13 -0.66 13 -1 13 C-1.02696365 11.20841511 -1.04637917 9.41671527 -1.0625 7.625 C-1.07410156 6.62726563 -1.08570313 5.62953125 -1.09765625 4.6015625 C-1 2 -1 2 0 0 Z " fill="#EE5908" transform="translate(437,311)"/>
<path d="M0 0 C0.33 0 0.66 0 1 0 C1 1.65 1 3.3 1 5 C0.01 5.33 -0.98 5.66 -2 6 C-3.37195574 7.29355827 -4.71182656 8.62298702 -6 10 C-4.63201951 6.0100569 -2.79608023 3.15686477 0 0 Z " fill="#E87A0F" transform="translate(480,250)"/>
<path d="M0 0 C0.66 0.66 1.32 1.32 2 2 C1.67 2.99 1.34 3.98 1 5 C0.34 4.34 -0.32 3.68 -1 3 C-3.57061311 2.35232207 -3.57061311 2.35232207 -6 2 C-6.33 2.99 -6.66 3.98 -7 5 C-7.33 4.34 -7.66 3.68 -8 3 C-7.67 2.34 -7.34 1.68 -7 1 C-3.5625 0.25 -3.5625 0.25 0 0 Z " fill="#ECE5DD" transform="translate(497,202)"/>
<path d="M0 0 C0.66 0.99 1.32 1.98 2 3 C1.34 3.66 0.68 4.32 0 5 C-0.64767793 7.57061311 -0.64767793 7.57061311 -1 10 C-1.33 10 -1.66 10 -2 10 C-2 7.03 -2 4.06 -2 1 C-1.34 0.67 -0.68 0.34 0 0 Z " fill="#E0F1FB" transform="translate(595,597)"/>
<path d="M0 0 C1.46726798 3.81489674 0.43336419 6.29011622 -1 10 C-1.66 10 -2.32 10 -3 10 C-2.39009109 6.44219804 -1.4216319 3.3171411 0 0 Z " fill="#2B3D48" transform="translate(599,574)"/>
<path d="M0 0 C0.33 0.99 0.66 1.98 1 3 C0.360625 3.226875 -0.27875 3.45375 -0.9375 3.6875 C-3.27193661 4.85250896 -3.27193661 4.85250896 -3.75 7.625 C-3.8325 8.40875 -3.915 9.1925 -4 10 C-5 7 -5 7 -4 4 C-3.34 4 -2.68 4 -2 4 C-2 3.01 -2 2.02 -2 1 C-1.34 0.67 -0.68 0.34 0 0 Z " fill="#F0E6CD" transform="translate(439,299)"/>
<path d="M0 0 C0.33 0.66 0.66 1.32 1 2 C-0.98 4.31 -2.96 6.62 -5 9 C-5 4.61031544 -2.87194899 3.23094261 0 0 Z " fill="#F26A02" transform="translate(490,240)"/>
<path d="M0 0 C0.82638376 2.89234315 1 4.88742431 1 8 C0.34 8 -0.32 8 -1 8 C-1.93065133 5.39417629 -2.14917407 4.35801776 -1.0625 1.75 C-0.711875 1.1725 -0.36125 0.595 0 0 Z " fill="#CBD8E6" transform="translate(498,494)"/>
<path d="M0 0 C0.33 0.66 0.66 1.32 1 2 C0.06553465 4.03144641 -0.93224776 6.03533587 -2 8 C-2.66 8 -3.32 8 -4 8 C-3.50168276 4.31245243 -2.89932357 2.39509338 0 0 Z " fill="#E4E6EE" transform="translate(479,355)"/>
<path d="M0 0 C2.4375 0.6875 2.4375 0.6875 5 2 C5.8125 4.625 5.8125 4.625 6 7 C3.95880212 5.38405168 1.95927063 3.7143618 0 2 C0 1.34 0 0.68 0 0 Z " fill="#E5E5EE" transform="translate(521,224)"/>
</svg>
